<?xml version="1.0" encoding="UTF-8"?>
<svg version="1.1" xmlns="http://www.w3.org/2000/svg" width="172" height="172">
<path d="M0 0 C4.11445161 1.07816073 5.90939417 4.04892984 8.02734375 7.53125 C12.26327683 16.81179429 12.05202512 27.65355041 12.71484375 37.65625 C12.84466686 39.48965701 12.97551749 41.32299156 13.10742188 43.15625 C13.42592375 47.61383566 13.73047502 52.07217352 14.02734375 56.53125 C14.22312012 55.34535278 14.22312012 55.34535278 14.42285156 54.13549805 C15.03022917 50.49468948 15.65367764 46.85680231 16.27734375 43.21875 C16.48230469 41.97544922 16.68726563 40.73214844 16.8984375 39.45117188 C19.07596135 26.88092054 22.57470845 12.63772413 32.359375 3.6328125 C35.42732692 1.60667095 38.39942196 1.08317998 42.02734375 1.53125 C45.82294733 3.49934074 47.65621595 4.9745583 50.02734375 8.53125 C50.96518095 15.8921815 50.50828486 22.45935586 46.02734375 28.53125 C43.25688732 31.44751993 41.88808478 32.41074626 37.90234375 32.96875 C34.66409466 32.47597296 33.96652594 32.07536657 32.02734375 29.53125 C31.6640625 27.33984375 31.6640625 27.33984375 31.71484375 24.96875 C31.71871094 24.18371094 31.72257812 23.39867188 31.7265625 22.58984375 C32.02734375 20.53125 32.02734375 20.53125 34.02734375 18.53125 C36.65234375 18.40625 36.65234375 18.40625 39.02734375 18.53125 C38.71796875 19.0675 38.40859375 19.60375 38.08984375 20.15625 C36.84906936 22.9297457 36.43637625 25.53167837 36.02734375 28.53125 C39.84563489 27.65849774 41.66490208 26.09445189 43.83984375 22.96875 C46.36008416 18.57633101 47.2369631 14.50629733 46.02734375 9.53125 C44.07594488 6.73627816 44.07594488 6.73627816 41.02734375 5.53125 C37.0142943 5.36403961 35.50969666 6.09713238 32.52734375 8.78125 C25.41106004 18.41492617 22.63981104 29.84853257 20.27734375 41.34375 C19.98580698 42.71059267 19.69284239 44.0771316 19.3984375 45.44335938 C18.84410612 48.01926654 18.29599073 50.59618266 17.75195312 53.17431641 C16.92916702 56.98607816 16.0127457 60.75870625 15.02734375 64.53125 C13.04734375 65.02625 13.04734375 65.02625 11.02734375 65.53125 C9.89196636 63.26049523 9.87536147 61.92687098 9.81640625 59.40234375 C9.7901416 58.54415039 9.76387695 57.68595703 9.73681641 56.80175781 C9.70894043 55.86686523 9.68106445 54.93197266 9.65234375 53.96875 C9.32389728 45.36029709 8.65250341 36.83781491 7.65234375 28.28125 C7.53842285 27.2595874 7.42450195 26.2379248 7.30712891 25.18530273 C6.24749651 13.99195778 6.24749651 13.99195778 1.02734375 4.53125 C-2.76110524 4.38268337 -5.09143496 4.73693417 -7.953125 7.31640625 C-12.89066377 12.92131751 -12.89066377 12.92131751 -14.16015625 20.03125 C-14.17433594 20.8253125 -14.18851563 21.619375 -14.203125 22.4375 C-14.16931928 24.75158317 -14.16931928 24.75158317 -11.97265625 26.53125 C-9.36985057 26.21083603 -9.36985057 26.21083603 -6.97265625 25.53125 C-6.22308468 22.05977158 -6.22308468 22.05977158 -5.97265625 18.53125 C-7.29265625 18.53125 -8.61265625 18.53125 -9.97265625 18.53125 C-9.64265625 17.21125 -9.31265625 15.89125 -8.97265625 14.53125 C-4.56991025 13.22232551 -4.56991025 13.22232551 -2.16015625 14.46875 C-0.29196685 17.71350001 -0.32156174 20.93972865 -0.97265625 24.53125 C-2.76629536 27.3412846 -3.9914656 29.04065468 -6.97265625 30.53125 C-9.84765625 30.84375 -9.84765625 30.84375 -12.97265625 30.53125 C-15.84836744 28.19959228 -17.65255013 26.21758223 -18.3515625 22.53515625 C-18.89434673 15.31728088 -16.47782806 11.49623965 -12.11328125 5.87890625 C-8.38877742 1.79418581 -5.80067891 -0.25924822 0 0 Z " fill="#ffffff" transform="translate(68.97265625,28.46875)"/>
<path d="M0 0 C4.1037216 1.07534901 5.93318066 4.04173817 8.02734375 7.53125 C10.85651966 14.56244525 11.677898 21.71628779 12.21484375 29.21875 C12.33762695 30.70858398 12.33762695 30.70858398 12.46289062 32.22851562 C12.86742514 37.34468747 13.1206429 42.39979676 13.02734375 47.53125 C12.36734375 47.53125 11.70734375 47.53125 11.02734375 47.53125 C11.02734375 52.81125 11.02734375 58.09125 11.02734375 63.53125 C10.69734375 63.53125 10.36734375 63.53125 10.02734375 63.53125 C9.98996094 62.23316406 9.95257813 60.93507812 9.9140625 59.59765625 C9.55634731 49.10858691 8.86572195 38.70815585 7.65234375 28.28125 C7.53850342 27.25974854 7.42466309 26.23824707 7.30737305 25.18579102 C6.24749594 13.99221115 6.24749594 13.99221115 1.02734375 4.53125 C-2.76110524 4.38268337 -5.09143496 4.73693417 -7.953125 7.31640625 C-12.89066377 12.92131751 -12.89066377 12.92131751 -14.16015625 20.03125 C-14.17433594 20.8253125 -14.18851563 21.619375 -14.203125 22.4375 C-14.16931928 24.75158317 -14.16931928 24.75158317 -11.97265625 26.53125 C-9.36985057 26.21083603 -9.36985057 26.21083603 -6.97265625 25.53125 C-6.22308468 22.05977158 -6.22308468 22.05977158 -5.97265625 18.53125 C-7.29265625 18.53125 -8.61265625 18.53125 -9.97265625 18.53125 C-9.64265625 17.21125 -9.31265625 15.89125 -8.97265625 14.53125 C-4.56991025 13.22232551 -4.56991025 13.22232551 -2.16015625 14.46875 C-0.29196685 17.71350001 -0.32156174 20.93972865 -0.97265625 24.53125 C-2.76629536 27.3412846 -3.9914656 29.04065468 -6.97265625 30.53125 C-9.84765625 30.84375 -9.84765625 30.84375 -12.97265625 30.53125 C-15.84836744 28.19959228 -17.65255013 26.21758223 -18.3515625 22.53515625 C-18.89434673 15.31728088 -16.47782806 11.49623965 -12.11328125 5.87890625 C-8.38877742 1.79418581 -5.80067891 -0.25924822 0 0 Z " fill="#ffffff" transform="translate(68.97265625,28.46875)"/>
<path d="M0 0 C0.66 0 1.32 0 2 0 C2.51281183 6.95144919 2.0993282 12.20485851 -2 18 C-4.77045643 20.91626993 -6.13925897 21.87949626 -10.125 22.4375 C-13.36324909 21.94472296 -14.06081781 21.54411657 -16 19 C-16.36328125 16.80859375 -16.36328125 16.80859375 -16.3125 14.4375 C-16.30863281 13.65246094 -16.30476563 12.86742187 -16.30078125 12.05859375 C-16 10 -16 10 -14 8 C-11.375 7.875 -11.375 7.875 -9 8 C-9.309375 8.53625 -9.61875 9.0725 -9.9375 9.625 C-11.17827439 12.3984957 -11.5909675 15.00042837 -12 18 C-9.07483176 17.33139012 -7.39162495 16.54515973 -5.625 14.0859375 C-4.76199156 12.63217923 -3.92376302 11.16337075 -3.11328125 9.6796875 C-2.74589844 9.12539063 -2.37851563 8.57109375 -2 8 C-1.34 8 -0.68 8 0 8 C0 5.36 0 2.72 0 0 Z " fill="#ffffff" transform="translate(117,39)"/>
<path d="M0 0 C1.875 0.125 1.875 0.125 4 1 C6.50932781 6.52605647 6.66272794 12.46964355 7.125 18.4375 C7.21136719 19.44876953 7.29773438 20.46003906 7.38671875 21.50195312 C7.81277624 26.68565255 8.10240464 31.79930702 8 37 C7.34 37 6.68 37 6 37 C6 42.28 6 47.56 6 53 C5.67 53 5.34 53 5 53 C4.96261719 51.70191406 4.92523438 50.40382812 4.88671875 49.06640625 C4.32311662 32.62392662 2.88702265 16.21174257 0 0 Z " fill="#ffffff" transform="translate(74,39)"/>
<path d="M0 0 C3.34289098 0.83887642 4.87330394 2.96040317 6.94140625 5.59765625 C8.10390381 7.57671784 8.63843039 9.27572995 9.0703125 11.51953125 C7.3203125 11.39453125 7.3203125 11.39453125 5.0703125 10.51953125 C2.8203125 7.45703125 2.8203125 7.45703125 1.0703125 4.51953125 C-2.65725522 4.51953125 -4.86977254 4.69275441 -7.84765625 7.015625 C-12.51480821 11.96141289 -14.51173418 16.92942441 -15.9296875 23.51953125 C-16.2596875 23.51953125 -16.5896875 23.51953125 -16.9296875 23.51953125 C-17.63126225 18.39413797 -17.91182866 14.21137814 -15.25390625 9.6328125 C-7.44112392 -0.15101912 -7.44112392 -0.15101912 0 0 Z " fill="#ffffff" transform="translate(68.9296875,28.48046875)"/>
<path d="M0 0 C0.33 0 0.66 0 1 0 C1.33 6.93 1.66 13.86 2 21 C1.34 21 0.68 21 0 21 C0 26.28 0 31.56 0 37 C-0.33 37 -0.66 37 -1 37 C-1.33 26.77 -1.66 16.54 -2 6 C-1.67 6 -1.34 6 -1 6 C-0.67 4.02 -0.34 2.04 0 0 Z " fill="#ffffff" transform="translate(80,55)"/>
<path d="M0 0 C4.70588235 0.70588235 4.70588235 0.70588235 6 2 C6.14115161 4.67058851 6.04247107 7.32432238 6 10 C5.34 10 4.68 10 4 10 C3.34 8.35 2.68 6.7 2 5 C0.68 5 -0.64 5 -2 5 C-1.125 1.125 -1.125 1.125 0 0 Z " fill="#ffffff" transform="translate(61,42)"/>
<path d="M0 0 C0.66 0 1.32 0 2 0 C2 3.96 2 7.92 2 12 C2.66 12 3.32 12 4 12 C4 13.65 4 15.3 4 17 C2.68 17.33 1.36 17.66 0 18 C0 12.06 0 6.12 0 0 Z " fill="#ffffff" transform="translate(80,76)"/>
<path d="M0 0 C2.625 -0.4375 2.625 -0.4375 6 0 C9.65658517 3.05135728 12.11321436 6.28438694 13 11 C11.25 10.875 11.25 10.875 9 10 C8.360625 9.030625 7.72125 8.06125 7.0625 7.0625 C4.8588525 3.79041735 3.71421665 3.03172685 0 2 C0 1.34 0 0.68 0 0 Z " fill="#ffffff" transform="translate(65,29)"/>
<path d="M0 0 C0.78375 0.04125 1.5675 0.0825 2.375 0.125 C1.04166667 2.79166667 -0.29166667 5.45833333 -1.625 8.125 C-1.955 6.805 -2.285 5.485 -2.625 4.125 C-2.955 6.435 -3.285 8.745 -3.625 11.125 C-3.955 11.125 -4.285 11.125 -4.625 11.125 C-4.67899736 9.66707116 -4.71779177 8.20857288 -4.75 6.75 C-4.78480469 5.53183594 -4.78480469 5.53183594 -4.8203125 4.2890625 C-4.51136441 0.86591762 -3.34090594 0.15909076 0 0 Z " fill="#ffffff" transform="translate(105.625,46.875)"/>
<path d="M0 0 C0 0.66 0 1.32 0 2 C1.32 2.33 2.64 2.66 4 3 C-2.625 6 -2.625 6 -6 6 C-5.6875 4.125 -5.6875 4.125 -5 2 C-2 0 -2 0 0 0 Z " fill="#ffffff" transform="translate(65,29)"/>
<path d="M0 0 C0.95465783 2.16967689 1.14401212 3.56328793 0.3984375 5.82421875 C-0.35870385 7.5684743 -1.17609198 9.28627131 -2 11 C-2.66 11 -3.32 11 -4 11 C-3.71890887 9.35232753 -3.42481474 7.70686855 -3.125 6.0625 C-2.96257812 5.14597656 -2.80015625 4.22945312 -2.6328125 3.28515625 C-2.42398438 2.53105469 -2.21515625 1.77695312 -2 1 C-1.34 0.67 -0.68 0.34 0 0 Z " fill="#ffffff" transform="translate(95,43)"/>
<path d="M0 0 C1.32 0.33 2.64 0.66 4 1 C4.33 2.65 4.66 4.3 5 6 C4.67 6 4.34 6 4 6 C3.67 7.98 3.34 9.96 3 12 C2.67 12 2.34 12 2 12 C1.34 8.04 0.68 4.08 0 0 Z " fill="#ffffff" transform="translate(74,39)"/>
<path d="M0 0 C1.485 0.99 1.485 0.99 3 2 C3 2.66 3 3.32 3 4 C2.34 4 1.68 4 1 4 C1 6.64 1 9.28 1 12 C0.67 12 0.34 12 0 12 C-0.19401633 10.18818595 -0.38004375 8.37551468 -0.5625 6.5625 C-0.66691406 5.55316406 -0.77132812 4.54382812 -0.87890625 3.50390625 C-0.91886719 2.67761719 -0.95882812 1.85132813 -1 1 C-0.67 0.67 -0.34 0.34 0 0 Z " fill="#ffffff" transform="translate(116,35)"/>
<path d="M0 0 C1.04005702 3.38018531 1.08004482 6.4780279 1 10 C0.01 9.67 -0.98 9.34 -2 9 C-1.125 2.25 -1.125 2.25 0 0 Z " fill="#ffffff" transform="translate(91,48)"/>
<path d="M0 0 C0.33 0 0.66 0 1 0 C1.29296875 6.0546875 1.29296875 6.0546875 1 8 C0.01 8.66 -0.98 9.32 -2 10 C-2.66 9.34 -3.32 8.68 -4 8 C-3.34 7.01 -2.68 6.02 -2 5 C-2 5.66 -2 6.32 -2 7 C-1.34 7 -0.68 7 0 7 C0 4.69 0 2.38 0 0 Z " fill="#ffffff" transform="translate(67,45)"/>
<path d="M0 0 C2.875 -0.1875 2.875 -0.1875 6 0 C6.66 0.99 7.32 1.98 8 3 C4.37673261 4.2077558 3.35853631 3.54311128 0 2 C0 1.34 0 0.68 0 0 Z " fill="#ffffff" transform="translate(65,29)"/>
</svg>
