<?xml version="1.0" encoding="UTF-8"?>
<svg version="1.1" xmlns="http://www.w3.org/2000/svg" width="172" height="172">
<path fill-rule="evenodd" d="M0 0 C2.6522995 0.95789308 3.69145832 1.69507831 5.43359375 3.87890625 C5.78089905 5.87643433 5.78089905 5.87643433 5.74243164 8.17919922 C5.73574966 9.04374725 5.72906769 9.90829529 5.72218323 10.79904175 C5.70042526 11.73031891 5.6786673 12.66159607 5.65625 13.62109375 C5.64726181 14.58161652 5.63827362 15.54213928 5.62901306 16.5317688 C5.59895314 19.60617924 5.54917818 22.67981322 5.49609375 25.75390625 C5.44824107 28.82080621 5.40488109 31.88750172 5.37388611 34.95462036 C5.35416147 36.8635063 5.32456962 38.77232203 5.28395081 40.68087769 C5.23287636 45.20372543 5.25707214 48.77595195 7.43359375 52.87890625 C10.2204404 51.56238267 12.6211599 50.04631165 15.12109375 48.25390625 C19.53253141 45.48029713 23.32029317 44.84846925 28.43359375 45.87890625 C31.49609375 47.44140625 31.49609375 47.44140625 33.43359375 49.87890625 C34.05859375 53.31640625 34.05859375 53.31640625 33.43359375 56.87890625 C30.59798093 60.52469417 27.91111112 62.70622313 23.43359375 63.87890625 C18.38573245 64.35511958 14.92300156 63.53682483 10.42578125 61.4375 C6.60084915 60.36501904 3.93538545 61.60943803 0.53125 63.4375 C-0.97115234 64.36755859 -0.97115234 64.36755859 -2.50390625 65.31640625 C-8.50737424 69.02693679 -13.50649412 71.16383562 -20.62890625 71.19140625 C-21.63050781 71.20816406 -22.63210937 71.22492188 -23.6640625 71.2421875 C-27.94925927 70.70581698 -30.55463493 68.89067757 -33.56640625 65.87890625 C-33.56640625 64.88890625 -33.56640625 63.89890625 -33.56640625 62.87890625 C-31.56640625 62.87890625 -31.56640625 62.87890625 -30.06640625 64.31640625 C-29.57140625 64.83203125 -29.07640625 65.34765625 -28.56640625 65.87890625 C-24.13701359 68.09360258 -19.33645999 67.67891526 -14.56640625 66.87890625 C-4.19094808 63.04634996 -4.19094808 63.04634996 3.43359375 55.87890625 C2.964375 54.80898437 2.49515625 53.7390625 2.01171875 52.63671875 C-0.4089014 46.51900109 0.07689259 40.23600147 0.18359375 33.75390625 C0.18875 32.52414063 0.19390625 31.294375 0.19921875 30.02734375 C0.26998099 21.60663778 0.73988895 13.26950777 1.43359375 4.87890625 C-4.28259675 6.64571999 -6.14093024 8.11267722 -9.1875 13.1796875 C-15.61526325 25.76207958 -16.16282718 40.04524385 -17.56640625 53.87890625 C-18.88640625 53.87890625 -20.20640625 53.87890625 -21.56640625 53.87890625 C-22.8223476 50.11108219 -22.61329408 46.65477123 -22.5234375 42.73828125 C-22.50103895 41.0937622 -22.47958468 39.44923006 -22.45898438 37.8046875 C-22.42198351 35.21952791 -22.37904736 32.63503938 -22.31958008 30.05029297 C-22.26477587 27.55035943 -22.23590755 25.05116826 -22.2109375 22.55078125 C-22.1871553 21.78699158 -22.16337311 21.0232019 -22.13887024 20.23626709 C-22.11197204 14.66922278 -23.47194603 11.50703612 -26.56640625 6.87890625 C-29.32282041 7.37646717 -29.32282041 7.37646717 -31.56640625 8.87890625 C-31.18218013 12.95170314 -30.68696154 16.34464743 -28.56640625 19.87890625 C-29.88640625 19.87890625 -31.20640625 19.87890625 -32.56640625 19.87890625 C-34.9547063 15.69938116 -36.28635038 12.71281686 -35.56640625 7.87890625 C-33.94140625 5.00390625 -33.94140625 5.00390625 -31.56640625 2.87890625 C-28.62890625 2.25390625 -28.62890625 2.25390625 -25.56640625 2.87890625 C-22.99354901 5.05154125 -21.07643706 6.85884463 -19.56640625 9.87890625 C-19.33366416 12.75801213 -19.14667868 15.6203712 -19.00390625 18.50390625 C-18.96072266 19.30570313 -18.91753906 20.1075 -18.87304688 20.93359375 C-18.76689168 22.91515735 -18.6661377 24.89700896 -18.56640625 26.87890625 C-18.20289063 25.46738281 -18.20289063 25.46738281 -17.83203125 24.02734375 C-17.496875 22.78210938 -17.16171875 21.536875 -16.81640625 20.25390625 C-16.32914063 18.40925781 -16.32914063 18.40925781 -15.83203125 16.52734375 C-13.91002387 10.98674222 -10.95905292 6.85997462 -6.62890625 2.94140625 C-5.98050781 2.33425781 -5.33210938 1.72710937 -4.6640625 1.1015625 C-2.56640625 -0.12109375 -2.56640625 -0.12109375 0 0 Z M25.43359375 49.87890625 C27.80859375 50.87890625 27.80859375 50.87890625 29.43359375 51.87890625 C29.68359375 54.19140625 29.68359375 54.19140625 29.43359375 56.87890625 C27.10027631 59.71946662 24.49079146 60.20640361 20.99609375 60.75390625 C16.94144790 61.10852049 14.67903520 60.49618968 11.43359375 57.87890625 C13.66868359 51.62065469 19.07415380 49.04941408 25.43359375 49.87890625 Z " fill="#ffffff" transform="translate(88.56640625,36.12109375)"/>
<path d="M0 0 C2.68597355 0.97005465 3.85669313 1.4981959 5.43359375 3.87890625 C5.76171875 6.5390625 5.76171875 6.5390625 5.68359375 9.94140625 C5.64492187 11.90980469 5.64492187 11.90980469 5.60546875 13.91796875 C5.55083453 15.57170451 5.49319261 17.22534196 5.43359375 18.87890625 C5.39685547 19.95108398 5.36011719 21.02326172 5.32226562 22.12792969 C5.05745201 29.71294818 4.75754544 37.29619657 4.43359375 44.87890625 C4.10359375 44.87890625 3.77359375 44.87890625 3.43359375 44.87890625 C2.93859375 32.00890625 2.93859375 32.00890625 2.43359375 18.87890625 C2.10359375 18.87890625 1.77359375 18.87890625 1.43359375 18.87890625 C1.43359375 14.25890625 1.43359375 9.63890625 1.43359375 4.87890625 C-5.81458408 7.29496553 -7.23562319 9.35887482 -10.56640625 15.87890625 C-15.83052518 27.70101846 -16.2764728 41.16533401 -17.56640625 53.87890625 C-18.88640625 53.87890625 -20.20640625 53.87890625 -21.56640625 53.87890625 C-22.8223476 50.11108219 -22.61329408 46.65477123 -22.5234375 42.73828125 C-22.50103895 41.0937622 -22.47958468 39.44923006 -22.45898438 37.8046875 C-22.42198351 35.21952791 -22.37904736 32.63503938 -22.31958008 30.05029297 C-22.26477587 27.55035943 -22.23590755 25.05116826 -22.2109375 22.55078125 C-22.1871553 21.78699158 -22.16337311 21.0232019 -22.13887024 20.23626709 C-22.11197204 14.66922278 -23.47194603 11.50703612 -26.56640625 6.87890625 C-29.32282041 7.37646717 -29.32282041 7.37646717 -31.56640625 8.87890625 C-31.18218013 12.95170314 -30.68696154 16.34464743 -28.56640625 19.87890625 C-29.88640625 19.87890625 -31.20640625 19.87890625 -32.56640625 19.87890625 C-34.9547063 15.69938116 -36.28635038 12.71281686 -35.56640625 7.87890625 C-33.94140625 5.00390625 -33.94140625 5.00390625 -31.56640625 2.87890625 C-28.62890625 2.25390625 -28.62890625 2.25390625 -25.56640625 2.87890625 C-22.99354901 5.05154125 -21.07643706 6.85884463 -19.56640625 9.87890625 C-19.33366416 12.75801213 -19.14667868 15.6203712 -19.00390625 18.50390625 C-18.96072266 19.30570313 -18.91753906 20.1075 -18.87304688 20.93359375 C-18.76689168 22.91515735 -18.6661377 24.89700896 -18.56640625 26.87890625 C-18.20289063 25.46738281 -18.20289063 25.46738281 -17.83203125 24.02734375 C-17.496875 22.78210938 -17.16171875 21.536875 -16.81640625 20.25390625 C-16.32914063 18.40925781 -16.32914063 18.40925781 -15.83203125 16.52734375 C-13.91002387 10.98674222 -10.95905292 6.85997462 -6.62890625 2.94140625 C-5.98050781 2.33425781 -5.33210938 1.72710937 -4.6640625 1.1015625 C-2.56640625 -0.12109375 -2.56640625 -0.12109375 0 0 Z " fill="#ffffff" transform="translate(88.56640625,36.12109375)"/>
<path d="M0 0 C2.68597355 0.97005465 3.85669313 1.4981959 5.43359375 3.87890625 C5.76171875 6.5390625 5.76171875 6.5390625 5.68359375 9.94140625 C5.6578125 11.25367188 5.63203125 12.5659375 5.60546875 13.91796875 C5.55083453 15.57170451 5.49319261 17.22534196 5.43359375 18.87890625 C5.39685547 19.95108398 5.36011719 21.02326172 5.32226562 22.12792969 C5.05745201 29.71294818 4.75754544 37.29619657 4.43359375 44.87890625 C4.10359375 44.87890625 3.77359375 44.87890625 3.43359375 44.87890625 C2.93859375 32.00890625 2.93859375 32.00890625 2.43359375 18.87890625 C2.10359375 18.87890625 1.77359375 18.87890625 1.43359375 18.87890625 C1.43359375 14.25890625 1.43359375 9.63890625 1.43359375 4.87890625 C-5.78600884 7.28544045 -7.27336228 9.35793499 -10.56640625 15.87890625 C-14.23481289 24.95401678 -15.55073902 34.2167035 -16.56640625 43.87890625 C-16.89640625 43.87890625 -17.22640625 43.87890625 -17.56640625 43.87890625 C-19.08206061 30.27096598 -19.0900982 18.44451057 -10.56640625 6.87890625 C-8.6015625 4.7265625 -8.6015625 4.7265625 -6.62890625 2.94140625 C-5.98050781 2.33425781 -5.33210938 1.72710937 -4.6640625 1.1015625 C-2.56640625 -0.12109375 -2.56640625 -0.12109375 0 0 Z " fill="#ffffff" transform="translate(88.56640625,36.12109375)"/>
<path d="M0 0 C0.66 0 1.32 0 2 0 C3.03714522 3.11143567 3.20031861 5.49468096 3.31640625 8.76171875 C3.35830078 9.87998047 3.40019531 10.99824219 3.44335938 12.15039062 C3.48267578 13.31763672 3.52199219 14.48488281 3.5625 15.6875 C3.60568359 16.86634766 3.64886719 18.04519531 3.69335938 19.25976562 C3.79951176 22.17305883 3.90156242 25.08643757 4 28 C4.66 26.68 5.32 25.36 6 24 C6 30.93 6 37.86 6 45 C4.68 45 3.36 45 2 45 C0.74162505 41.22487514 0.89559844 37.71830031 0.9375 33.7890625 C0.94128662 32.98391205 0.94507324 32.1787616 0.94897461 31.34921265 C0.96531193 27.90624787 0.99339841 24.46340194 1.02050781 21.02050781 C1.03862621 18.50586499 1.05070151 15.99124166 1.0625 13.4765625 C1.07079834 12.70245026 1.07909668 11.92833801 1.08764648 11.13076782 C1.10501683 7.28826673 0.94020873 3.73399827 0 0 Z " fill="#ffffff" transform="translate(65,45)"/>
<path d="M0 0 C0.495 1.485 0.495 1.485 1 3 C-8.32941818 8.86315214 -15.70402686 12.41389704 -27 11 C-29.81289544 9.57154527 -31.77179037 8.22820963 -34 6 C-34 5.01 -34 4.02 -34 3 C-32 3 -32 3 -30.5 4.4375 C-30.005 4.953125 -29.51 5.46875 -29 6 C-24.68861264 8.15569368 -19.65543348 7.67332823 -15 7 C-11.30088158 5.40038122 -8.06331787 3.61380361 -4.6171875 1.53125 C-2 0 -2 0 0 0 Z " fill="#ffffff" transform="translate(89,96)"/>
<path d="M0 0 C0.01981934 0.77601562 0.03963867 1.55203125 0.06005859 2.3515625 C0.15589878 5.90135587 0.26533804 9.45060781 0.375 13 C0.42140625 14.83111328 0.42140625 14.83111328 0.46875 16.69921875 C0.67627022 23.09775898 1.11533505 28.87100828 3 35 C0.5625 34.1875 0.5625 34.1875 -2 33 C-3.13917218 29.58248347 -3.11338481 26.96512063 -3.09765625 23.36328125 C-3.09443359 22.06455078 -3.09121094 20.76582031 -3.08789062 19.42773438 C-3.07953531 18.05598892 -3.07107037 16.68424413 -3.0625 15.3125 C-3.05748335 13.92903805 -3.05292073 12.54557437 -3.04882812 11.16210938 C-3.03702529 7.77469605 -3.02056019 4.38736967 -3 1 C-1 0 -1 0 0 0 Z " fill="#ffffff" transform="translate(92,54)"/>
<path d="M0 0 C0.33 0 0.66 0 1 0 C1.2032114 13.68290082 0.5839284 27.33203763 0 41 C-0.33 41 -0.66 41 -1 41 C-1.33 32.42 -1.66 23.84 -2 15 C-2.33 15 -2.66 15 -3 15 C-3 11.04 -3 7.08 -3 3 C-2.67 3 -2.34 3 -2 3 C-1.67 5.31 -1.34 7.62 -1 10 C-0.67 6.7 -0.34 3.4 0 0 Z " fill="#ffffff" transform="translate(93,40)"/>
<path d="M0 0 C1.4370809 -0.05422947 2.87475462 -0.09289723 4.3125 -0.125 C5.11300781 -0.14820312 5.91351563 -0.17140625 6.73828125 -0.1953125 C9 0 9 0 12 2 C12.1875 5.125 12.1875 5.125 12 8 C11.154375 7.525625 10.30875 7.05125 9.4375 6.5625 C5.87412671 4.94278487 2.87438575 4.38743857 -1 4 C-0.67 2.68 -0.34 1.36 0 0 Z " fill="#ffffff" transform="translate(108,82)"/>
<path d="M0 0 C6.13949231 5.94144417 5.36732287 11.07600868 5.6875 19.375 C5.74744141 20.62023437 5.80738281 21.86546875 5.86914062 23.1484375 C5.91619141 24.3446875 5.96324219 25.5409375 6.01171875 26.7734375 C6.05772217 27.87091309 6.10372559 28.96838867 6.15112305 30.09912109 C6 33 6 33 4 37 C3.67 26.44 3.34 15.88 3 5 C2.01 5.33 1.02 5.66 0 6 C-0.38218767 4.34385343 -0.71395102 2.67542976 -1 1 C-0.67 0.67 -0.34 0.34 0 0 Z " fill="#ffffff" transform="translate(64,40)"/>
<path d="M0 0 C0.66 0.33 1.32 0.66 2 1 C2.43494462 5.43643516 2.54001196 7.32863378 -0.3125 10.875 C-3 13 -3 13 -6 14 C-6 13.34 -6 12.68 -6 12 C-6.99 11.67 -7.98 11.34 -9 11 C-8.071875 10.67 -7.14375 10.34 -6.1875 10 C-1.79272355 7.24249321 -1.44317923 4.89077407 0 0 Z " fill="#ffffff" transform="translate(120,85)"/>
<path d="M0 0 C-0.125 2.25 -0.125 2.25 -1 5 C-3.9375 7.1875 -3.9375 7.1875 -7 9 C-7.66 9.66 -8.32 10.32 -9 11 C-9 10.01 -9 9.02 -9 8 C-10.32 8 -11.64 8 -13 8 C-11.70534725 5.41069449 -10.59233351 5.26113522 -8 4 C-6.96875 3.29875 -5.9375 2.5975 -4.875 1.875 C-2 0 -2 0 0 0 Z " fill="#ffffff" transform="translate(108,83)"/>
<path d="M0 0 C1.485 0.99 1.485 0.99 3 2 C2.47594437 8.69007182 1.89536075 15.3487487 1 22 C0.67 22 0.34 22 0 22 C-0.19555932 19.27119539 -0.38170447 16.54228931 -0.5625 13.8125 C-0.61857422 13.04357422 -0.67464844 12.27464844 -0.73242188 11.48242188 C-0.99141557 7.45938647 -1.06573607 3.93927628 0 0 Z " fill="#ffffff" transform="translate(71,58)"/>
<path d="M0 0 C3 0.125 3 0.125 4 1.125 C4.12524459 2.91337622 4.17573676 4.70728214 4.1875 6.5 C4.20167969 7.47710937 4.21585938 8.45421875 4.23046875 9.4609375 C4 12.125 4 12.125 2 15.125 C1.93941406 14.42632812 1.87882812 13.72765625 1.81640625 13.0078125 C1.73261719 12.09773438 1.64882812 11.18765625 1.5625 10.25 C1.48128906 9.34507813 1.40007812 8.44015625 1.31640625 7.5078125 C1.13010715 5.11389139 1.13010715 5.11389139 0 3.125 C-2.01669827 1.99149466 -2.01669827 1.99149466 -4 1.125 C-3 0.125 -3 0.125 0 0 Z " fill="#ffffff" transform="translate(89,37.875)"/>
<path d="M0 0 C0.66 0 1.32 0 2 0 C2.64388672 0.70576172 2.64388672 0.70576172 3.30078125 1.42578125 C5.51062912 3.47306559 7.24192566 3.69019524 10.1875 4.1875 C11.08855469 4.34605469 11.98960938 4.50460938 12.91796875 4.66796875 C13.60503906 4.77753906 14.29210937 4.88710937 15 5 C15 5.33 15 5.66 15 6 C13.576875 6.2165625 13.576875 6.2165625 12.125 6.4375 C9.1065506 6.82935399 9.1065506 6.82935399 7 8 C4.27127689 6.56742037 2.18277634 5.18277634 0 3 C0 2.01 0 1.02 0 0 Z " fill="#ffffff" transform="translate(55,99)"/>
<path d="M0 0 C0 0.66 0 1.32 0 2 C-2.52475462 3.26237731 -4.31200466 3.09856404 -7.125 3.0625 C-8.03507812 3.05347656 -8.94515625 3.04445313 -9.8828125 3.03515625 C-10.58148438 3.02355469 -11.28015625 3.01195313 -12 3 C-12.33 2.34 -12.66 1.68 -13 1 C-8.61414671 0.29826347 -4.44209357 -0.10834375 0 0 Z " fill="#ffffff" transform="translate(76,104)"/>
<path d="M0 0 C-0.1875 2.375 -0.1875 2.375 -1 5 C-3.5625 6.3125 -3.5625 6.3125 -6 7 C-5.39816251 4.97954558 -4.72693904 2.97888961 -4 1 C-2 0 -2 0 0 0 Z " fill="#ffffff" transform="translate(108,83)"/>
<path d="M0 0 C0.268125 0.5775 0.53625 1.155 0.8125 1.75 C1.95053246 4.05747896 1.95053246 4.05747896 3.625 6.125 C5 8 5 8 5 10 C3.68 10 2.36 10 1 10 C-0.60725635 6.78548731 -0.05748185 3.56387464 0 0 Z " fill="#ffffff" transform="translate(55,46)"/>
<path d="M0 0 C0 0.66 0 1.32 0 2 C-2.95664519 3.4783226 -5.74229737 3.06032783 -9 3 C-9 2.34 -9 1.68 -9 1 C-5.94152152 0.45627049 -3.11227195 0 0 0 Z " fill="#ffffff" transform="translate(114,97)"/>
</svg>
