<?xml version="1.0" encoding="UTF-8"?>
<svg version="1.1" xmlns="http://www.w3.org/2000/svg" width="120" height="120">
<path d="M0 0 C2.59806172 2.26090867 4.45700062 4.91400125 6 8 C9.56430574 8.32216824 11.37987428 8.46063484 14.30859375 6.28515625 C15.01113281 5.55167969 15.71367188 4.81820312 16.4375 4.0625 C19.28407885 1.38757415 20.91507554 0.03221273 24.625 -1.375 C29.43921336 -0.8400874 31.85928339 1.43175129 35 5 C35.53625 5.9075 36.0725 6.815 36.625 7.75 C38.34949571 10.57190207 39.89098177 11.07569728 43 12 C43 12.33 43 12.66 43 13 C40.16391578 13.05787927 38.58566548 13.04526902 36 12 C33.30333162 9.23975594 31.16723868 6.18351445 29 3 C28.505 2.505 28.505 2.505 28 2 C24.63147485 1.9434891 24.63147485 1.9434891 21 3 C18.2806376 5.87983662 18.2806376 5.87983662 16 9 C12.7388511 11.31436374 9.94119368 11.40992365 6 11 C3.91015625 8.99609375 3.91015625 8.99609375 2.0625 6.4375 C-0.90114583 2.70036815 -0.90114583 2.70036815 -5.375 1.4375 C-9.80682807 3.34777072 -12.91013 6.07576374 -16.5703125 9.1796875 C-19.93909892 11.70356929 -21.82815216 12.16687391 -26 12 C-28.25 11.4375 -28.25 11.4375 -30 10 C-31.6875 6.9375 -31.6875 6.9375 -33 4 C-34.14738914 2.65628225 -34.14738914 2.65628225 -37.1875 2.5 C-41.41128013 3.05393838 -41.76940743 3.3931677 -44.3125 6.5 C-44.78300781 7.1496875 -45.25351562 7.799375 -45.73828125 8.46875 C-46.15464844 8.9740625 -46.57101563 9.479375 -47 10 C-47.66 10 -48.32 10 -49 10 C-47.64530893 5.56646558 -45.97128752 3.41730545 -42 1 C-39.09794784 0.08356248 -37.1524016 0 -34 0 C-30.06935568 2.27103894 -28.09864783 5.02361464 -26 9 C-19.38690798 9 -16.05868339 6.0334804 -11.13671875 1.8125 C-7.21710972 -1.51236031 -4.98165603 -1.26652272 0 0 Z " fill="#ffffff" transform="translate(60,49)"/>
<path d="M0 0 C2.80763544 2.32632651 4.88608877 5.04052428 7 8 C11.9353075 8 14.05014999 6.22624564 17.4375 2.9375 C20.36379001 0.22688295 21.70957941 -0.91988397 25.625 -2 C30.70069405 -0.49609065 32.85415227 2.92752881 36 7 C38.26780389 9.48836337 39.64764671 10.42200805 43 11 C43 11.66 43 12.32 43 13 C40.1657719 13.05668456 38.56326759 13.08445936 36 12 C34.4453125 9.96484375 34.4453125 9.96484375 33 7.5 C30.66260556 3.63438355 30.66260556 3.63438355 26.625 1.5 C21.99206403 2.13902565 20.12878267 3.99085569 16.89453125 7.23828125 C14.30416174 9.64705785 12.01278415 10.79224941 8.5625 11.5 C4.07907039 10.62518447 2.15055593 6.62123791 -0.375 3.0625 C-2.58181389 1.61958323 -4.36215094 1.68838751 -6.9140625 2.140625 C-9.7304886 3.30095036 -11.64161324 5.07037672 -13.9375 7.0625 C-19.39052186 11.63840453 -19.39052186 11.63840453 -23.25 12 C-28.04998616 10.72000369 -28.82083415 8.79758707 -31.4375 4.80859375 C-33.29509011 2.6584332 -34.19590143 2.2802425 -37 2.0625 C-40.60614399 2.40100777 -42.08559894 3.76947045 -44.375 6.5 C-44.83648437 7.1496875 -45.29796875 7.799375 -45.7734375 8.46875 C-46.17820312 8.9740625 -46.58296875 9.479375 -47 10 C-47.66 10 -48.32 10 -49 10 C-47.86497684 6.02741895 -46.07779931 3.49478358 -42.77734375 0.9609375 C-39.25171294 -0.94522773 -36.9589485 -0.69124498 -33 0 C-30.28731238 2.19821239 -28.56101757 4.87796487 -27 8 C-22.51408215 8.66458042 -20.20760014 8.7949886 -16.34765625 6.25390625 C-14.60420682 4.81767258 -12.88647758 3.34950202 -11.19921875 1.84765625 C-7.37962292 -1.361347 -4.67285813 -1.23973787 0 0 Z " fill="#ffffff" transform="translate(60,30)"/>
<path d="M0 0 C2.71268762 2.19821239 4.43898243 4.87796487 6 8 C12.31268603 8.37552165 12.31268603 8.37552165 18 6 C16.25 9.875 16.25 9.875 14 11 C8.83985765 11.77402135 8.83985765 11.77402135 6 11 C4.421875 9.21484375 4.421875 9.21484375 3 7 C1.07012924 3.9704258 1.07012924 3.9704258 -1.9375 2.22265625 C-4.29094067 2.03990802 -5.78760659 2.15823279 -8 3 C-9.88433132 4.68925737 -11.30914196 6.40728366 -12.7734375 8.46875 C-13.17820312 8.9740625 -13.58296875 9.479375 -14 10 C-14.66 10 -15.32 10 -16 10 C-14.86497684 6.02741895 -13.07779931 3.49478358 -9.77734375 0.9609375 C-6.25171294 -0.94522773 -3.9589485 -0.69124498 0 0 Z " fill="#ffffff" transform="translate(27,30)"/>
<path d="M0 0 C2.4375 2.3125 2.4375 2.3125 4 5 C4 6.32 4 7.64 4 9 C3.34 9 2.68 9 2 9 C1.525625 8.030625 1.05125 7.06125 0.5625 6.0625 C-0.70193947 3.19522563 -0.70193947 3.19522563 -2 2 C-5.28743547 1.33076238 -5.28743547 1.33076238 -9 2 C-10.86018771 3.68342779 -12.26823665 5.4388802 -13.73828125 7.46875 C-14.15464844 7.9740625 -14.57101563 8.479375 -15 9 C-15.66 9 -16.32 9 -17 9 C-15.64844718 4.57673622 -13.80109562 2.59587018 -10 0 C-6.16652698 -1.27782434 -3.91272241 -0.96101954 0 0 Z " fill="#ffffff" transform="translate(28,50)"/>
<path d="M0 0 C2.2734375 -0.23828125 2.2734375 -0.23828125 5 0 C6.9140625 1.64453125 6.9140625 1.64453125 8.625 3.8125 C12.80511766 9.42685538 12.80511766 9.42685538 19 12 C19 12.66 19 13.32 19 14 C16.16575407 14.05668492 14.56543157 14.07799953 12 13 C10.25778849 10.80832361 8.90802611 8.51245 7.48828125 6.1015625 C6.0312455 3.67445985 6.0312455 3.67445985 2.625 2.4375 C1.75875 2.293125 0.8925 2.14875 0 2 C0 1.34 0 0.68 0 0 Z " fill="#ffffff" transform="translate(84,29)"/>
<path d="M0 0 C0.33 0.66 0.66 1.32 1 2 C-0.8253125 2.309375 -0.8253125 2.309375 -2.6875 2.625 C-7.50473321 3.78866557 -9.22220672 6.00692215 -12 10 C-12.99 9.34 -13.98 8.68 -15 8 C-13.71064081 6.85157077 -12.41843421 5.70633773 -11.125 4.5625 C-10.04605469 3.60537109 -10.04605469 3.60537109 -8.9453125 2.62890625 C-5.83586921 0.02521578 -3.98594064 -0.10489317 0 0 Z " fill="#ffffff" transform="translate(88,48)"/>
<path d="M0 0 C-1.13819851 3.41459553 -2.24005518 4.3324158 -4.9375 6.625 C-5.64777344 7.23601563 -6.35804687 7.84703125 -7.08984375 8.4765625 C-9 10 -9 10 -11 11 C-11.66 10.34 -12.32 9.68 -13 9 C-11.21326795 7.4941255 -9.42046492 5.9954515 -7.625 4.5 C-6.62726563 3.6646875 -5.62953125 2.829375 -4.6015625 1.96875 C-2 0 -2 0 0 0 Z " fill="#ffffff" transform="translate(84,29)"/>
<path d="M0 0 C0.86625 0.268125 1.7325 0.53625 2.625 0.8125 C2.625 1.1425 2.625 1.4725 2.625 1.8125 C1.573125 2.01875 0.52125 2.225 -0.5625 2.4375 C-5.02579256 3.6662607 -6.63378358 6.20975842 -9.375 9.8125 C-10.035 9.8125 -10.695 9.8125 -11.375 9.8125 C-9.74511384 4.10789845 -6.25619088 -0.34756616 0 0 Z " fill="#ffffff" transform="translate(22.375,30.1875)"/>
<path d="M0 0 C0 0.33 0 0.66 0 1 C-1.794375 1.37125 -1.794375 1.37125 -3.625 1.75 C-7.79449098 2.77382519 -10.5823753 4.43678148 -14 7 C-12.60415208 3.62670085 -11.07634389 1.95767338 -8 0 C-4.71023192 -1.09658936 -3.28696233 -0.79953138 0 0 Z " fill="#ffffff" transform="translate(59,30)"/>
<path d="M0 0 C2.1875 -0.375 2.1875 -0.375 5 0 C6.99022836 1.83961648 8.38989899 3.79186148 10 6 C9.01 6 8.02 6 7 6 C6 5 5 4 4 3 C1.89667109 2.28552357 1.89667109 2.28552357 0 2 C0 1.34 0 0.68 0 0 Z " fill="#ffffff" transform="translate(84,29)"/>
<path d="M0 0 C0.66 0.66 1.32 1.32 2 2 C0.38405168 4.04119788 -1.2856382 6.04072937 -3 8 C-3.66 8 -4.32 8 -5 8 C-3.8141763 4.62496331 -2.72426311 2.35277269 0 0 Z " fill="#ffffff" transform="translate(16,51)"/>
<path d="M0 0 C0.66 0 1.32 0 2 0 C0.5511811 3.74278215 0.5511811 3.74278215 -1.875 4.875 C-4.47386397 5.02787435 -5.8019253 4.33454536 -8 3 C-6.865625 2.690625 -5.73125 2.38125 -4.5625 2.0625 C-1.21224901 1.37075469 -1.21224901 1.37075469 0 0 Z " fill="#ffffff" transform="translate(43,36)"/>
</svg>
