<?xml version="1.0" encoding="UTF-8"?>
<svg version="1.1" xmlns="http://www.w3.org/2000/svg" width="120" height="120">
<path d="M0 0 C0 3.57902656 -0.80400809 4.41601107 -2.875 7.25 C-5.58633208 11.15713184 -7.01457822 14.36851765 -8 19 C-8.99 18.34 -9.98 17.68 -11 17 C-9.56407335 12.88016856 -7.53749031 9.74182002 -4.9375 6.25 C-4.22464844 5.28578125 -3.51179688 4.3215625 -2.77734375 3.328125 C-1 1 -1 1 0 0 Z " fill="#ffffff" transform="translate(81,10)"/>
<path d="M0 0 C0 3.55716979 -0.74789788 4.32196354 -2.8125 7.125 C-8.87364801 16.02419143 -9.82695532 25.52540108 -11 36 C-8.36 36 -5.72 36 -3 36 C-3 36.33 -3 36.66 -3 37 C-5.64 37.33 -8.28 37.66 -11 38 C-8.49705189 53.67435678 -8.49705189 53.67435678 -2 68 C-1.401875 69.03125 -0.80375 70.0625 -0.1875 71.125 C0.204375 71.74375 0.59625 72.3625 1 73 C-5.45853147 70.35723111 -8.66758632 63.8215819 -11.52734375 57.765625 C-14.07821638 51.46607868 -15.65485728 45.78780691 -16 39 C-20.62 39 -25.24 39 -30 39 C-30.0928125 41.3821875 -30.0928125 41.3821875 -30.1875 43.8125 C-31.19810217 54.47844997 -36.77448857 64.18495939 -44 72 C-44.99 72 -45.98 72 -47 72 C-46.61328125 71.48953125 -46.2265625 70.9790625 -45.828125 70.453125 C-38.72440147 60.53604562 -36.46566753 49.95676145 -35 38 C-37.31 38 -39.62 38 -42 38 C-42.33 37.34 -42.66 36.68 -43 36 C-39.535 35.505 -39.535 35.505 -36 35 C-36.33824862 23.41498462 -37.88414031 13.4031003 -45 4 C-44.67 3.34 -44.34 2.68 -44 2 C-35.1739146 11.24637518 -30 22.17002201 -30 35 C-25.05 35 -20.1 35 -15 35 C-15.103125 33.783125 -15.20625 32.56625 -15.3125 31.3125 C-15.2382635 19.47177764 -8.1988447 8.1988447 0 0 Z " fill="#ffffff" transform="translate(81,10)"/>
<path d="M0 0 C3.98069267 2.87494471 6.43571997 5.82117329 9 10 C8.67 10.66 8.34 11.32 8 12 C7.34 12 6.68 12 6 12 C4.4921875 9.8828125 4.4921875 9.8828125 2.875 7.125 C2.33617187 6.22007813 1.79734375 5.31515625 1.2421875 4.3828125 C0 2 0 2 0 0 Z " fill="#ffffff" transform="translate(36,12)"/>
<path d="M0 0 C0.33 0 0.66 0 1 0 C1 3.63 1 7.26 1 11 C-1.31 11 -3.62 11 -6 11 C-6.33 10.34 -6.66 9.68 -7 9 C-3.535 8.505 -3.535 8.505 0 8 C0 5.36 0 2.72 0 0 Z " fill="#ffffff" transform="translate(45,37)"/>
<path d="M0 0 C0.33 1.32 0.66 2.64 1 4 C-0.21484375 5.921875 -0.21484375 5.921875 -1.9375 7.75 C-2.50339844 8.36359375 -3.06929687 8.9771875 -3.65234375 9.609375 C-4.31943359 10.29773438 -4.31943359 10.29773438 -5 11 C-5.66 10.67 -6.32 10.34 -7 10 C-3.535 5.05 -3.535 5.05 0 0 Z " fill="#ffffff" transform="translate(41,72)"/>
<path d="M0 0 C0.99 0.33 1.98 0.66 3 1 C3.6875 3.0625 3.6875 3.0625 4 5 C3.34 5 2.68 5 2 5 C1.67 5.99 1.34 6.98 1 8 C0.67 5.36 0.34 2.72 0 0 Z " fill="#ffffff" transform="translate(43,23)"/>
</svg>
