<?xml version="1.0" encoding="UTF-8"?>
<svg version="1.1" xmlns="http://www.w3.org/2000/svg" width="172" height="172">
<path d="M0 0 C3.84675246 2.17916202 7.01682426 4.98645609 8.9765625 9 C11.15689082 13.39879894 11.15689082 13.39879894 15.25415039 15.7734375 C18.00681271 16.08163156 20.60741088 16.10844372 23.375 16 C24.32511963 15.98090576 25.27523926 15.96181152 26.25415039 15.94213867 C30.31485749 15.72614737 33.20522707 15.47777598 36.72265625 13.36328125 C38.42382543 11.32885342 39.71728327 9.31661215 41 7 C44.84152333 2.70115246 47.84660764 1.55369259 53.4375 0.8125 C57.75943663 0.65425976 60.750265 0.75350669 64.3125 3.3125 C66.90444344 6.07208157 67.49659606 8.31179915 67.6875 12.0625 C67.3760584 16.46244091 66.3338663 18.96029837 63 22 C60.59454362 23.20272819 59.05003047 23.10071472 56.375 23.0625 C55.14910156 23.04896484 55.14910156 23.04896484 53.8984375 23.03515625 C53.27195312 23.02355469 52.64546875 23.01195313 52 23 C49.86496735 19.17473317 48.49444164 16.42363568 49 12 C50 11 50 11 53.0625 10.9375 C54.5165625 10.9684375 54.5165625 10.9684375 56 11 C56.6875 12.75 56.6875 12.75 57 15 C55.5625 17.25 55.5625 17.25 54 19 C58.96911366 17.87302957 58.96911366 17.87302957 63 15 C63.48922516 10.89955503 63.48922516 10.89955503 61.75390625 7.328125 C58.54555048 4.89863511 54.84303069 5.63205025 51 6 C45.90390151 7.0920211 42.12502237 10.95638316 39 15 C39 15.99 39 16.98 39 18 C40.57062979 19.40997103 40.57062979 19.40997103 42.625 20.6875 C49.56995648 25.6692179 54.63640953 32.73411015 57 41 C58.45284921 52.27998659 54.69341748 62.00177367 48 71 C45.86007955 73.15041025 43.67942587 74.59343512 41 76 C40.28199219 76.39058594 39.56398437 76.78117187 38.82421875 77.18359375 C29.51594033 81.58636374 18.73393475 81.39268194 9.1015625 77.95703125 C1.38101492 74.44116851 -4.28046412 66.43907176 -8 59 C-8.98133933 46.56433934 -7.76046685 34.49216201 0.55078125 24.58984375 C1.02902344 24.06519531 1.50726563 23.54054688 2 23 C3.0828125 21.7625 3.0828125 21.7625 4.1875 20.5 C6 19 6 19 9 19 C8.07172661 17.20353564 7.13204162 15.41296443 6.1875 13.625 C5.66542969 12.62726562 5.14335938 11.62953125 4.60546875 10.6015625 C3.10835316 7.77123883 3.10835316 7.77123883 0 6 C0 5.34 0 4.68 0 4 C-1.94014063 4.22860572 -3.87717414 4.48369181 -5.8125 4.75 C-6.89144531 4.88921875 -7.97039063 5.0284375 -9.08203125 5.171875 C-12.06272024 5.76419442 -12.06272024 5.76419442 -13.87109375 7.8515625 C-15.504668 10.96044083 -15.25561532 13.54919318 -15 17 C-14.67 17.66 -14.34 18.32 -14 19 C-12.02 19 -10.04 19 -8 19 C-7.67 18.34 -7.34 17.68 -7 17 C-8.32 16.67 -9.64 16.34 -11 16 C-10.125 11.125 -10.125 11.125 -9 10 C-6.19048514 9.70426159 -4.58371024 9.61756915 -2.1875 11.1875 C-0.51813435 13.73547915 -0.42914906 15.00303255 -1 18 C-3.4375 20.75 -3.4375 20.75 -6 23 C-6.33 23.33 -6.66 23.66 -7 24 C-10.00394731 24.35046052 -12.09273656 24.56833721 -15 24 C-18.55126387 20.96662878 -19.83772657 19.13591399 -20.5 14.5 C-19.76062235 9.32435647 -18.33527656 6.20500568 -14.4375 2.6875 C-9.74867957 -0.55860645 -5.61864758 -0.98717088 0 0 Z M30.375 23 C26.11950738 25.52177341 22.84564068 25.81688962 18 25 C15.75 23.4375 15.75 23.4375 14 22 C11.03432305 21.83969314 9.52363115 22.57808969 7.23046875 24.42578125 C-0.30214859 31.57780318 -2.99820048 39.71194055 -3.375 49.9375 C-3.20890512 58.1799585 -0.23923069 64.57377851 5.3984375 70.55859375 C11.22889646 75.80600682 17.66567025 75.51896204 25.203125 75.34765625 C32.87014365 74.64563499 39.8618836 72.21405352 45.49609375 66.82421875 C50.01553659 61.34219328 52.78528255 55.44720678 52.28125 48.27734375 C52.1884375 47.52582031 52.095625 46.77429688 52 46 C51.89171875 44.79537109 51.89171875 44.79537109 51.78125 43.56640625 C50.70664728 35.73890234 46.91746329 29.5649717 41.08984375 24.26171875 C36.97390032 21.15946839 34.7370565 19.67652838 30.375 23 Z " fill="#ffffff" transform="translate(63,24)"/>
<path d="M0 0 C0.91007812 0.00902344 1.82015625 0.01804687 2.7578125 0.02734375 C3.80582031 0.04474609 3.80582031 0.04474609 4.875 0.0625 C4.875 0.3925 4.875 0.7225 4.875 1.0625 C2.235 1.3925 -0.405 1.7225 -3.125 2.0625 C-0.155 2.5575 -0.155 2.5575 2.875 3.0625 C2.875 3.3925 2.875 3.7225 2.875 4.0625 C2.18792969 4.16046875 1.50085938 4.2584375 0.79296875 4.359375 C-0.10808594 4.50890625 -1.00914063 4.6584375 -1.9375 4.8125 C-2.83082031 4.95171875 -3.72414063 5.0909375 -4.64453125 5.234375 C-7.69387083 6.25242223 -8.58053889 7.2774062 -10.125 10.0625 C-10.50544553 14.71911065 -10.50544553 14.71911065 -9.125 19.0625 C-7.145 19.0625 -5.165 19.0625 -3.125 19.0625 C-2.795 18.4025 -2.465 17.7425 -2.125 17.0625 C-3.445 16.7325 -4.765 16.4025 -6.125 16.0625 C-5.25 11.1875 -5.25 11.1875 -4.125 10.0625 C-1.31548514 9.76676159 0.29128976 9.68006915 2.6875 11.25 C4.35686565 13.79797915 4.44585094 15.06553255 3.875 18.0625 C1.4375 20.8125 1.4375 20.8125 -1.125 23.0625 C-1.455 23.3925 -1.785 23.7225 -2.125 24.0625 C-5.12894731 24.41296052 -7.21773656 24.63083721 -10.125 24.0625 C-13.67626387 21.02912878 -14.96272657 19.19841399 -15.625 14.5625 C-14.88562235 9.38685647 -13.46027656 6.26750568 -9.5625 2.75 C-6.02882984 0.30361297 -4.26213925 -0.05464281 0 0 Z " fill="#ffffff" transform="translate(58.125,23.9375)"/>
<path d="M0 0 C2.88413103 2.73472785 3.58450666 4.73339132 3.75 8.6875 C3.4385584 13.08744091 2.3963663 15.58529837 -0.9375 18.625 C-3.34295638 19.82772819 -4.88746953 19.72571472 -7.5625 19.6875 C-8.78839844 19.67396484 -8.78839844 19.67396484 -10.0390625 19.66015625 C-10.66554688 19.64855469 -11.29203125 19.63695313 -11.9375 19.625 C-14.07253265 15.79973317 -15.44305836 13.04863568 -14.9375 8.625 C-13.9375 7.625 -13.9375 7.625 -10.875 7.5625 C-9.4209375 7.5934375 -9.4209375 7.5934375 -7.9375 7.625 C-7.25 9.375 -7.25 9.375 -6.9375 11.625 C-8.375 13.875 -8.375 13.875 -9.9375 15.625 C-4.96838634 14.49802957 -4.96838634 14.49802957 -0.9375 11.625 C-0.3536804 8.7100745 -0.3536804 8.7100745 -0.9375 5.625 C-2.66814856 3.00212361 -2.66814856 3.00212361 -5.9375 1.625 C-9.62974189 1.30348455 -13.24187039 1.39200059 -16.9375 1.625 C-14.9375 -1.375 -14.9375 -1.375 -13.25 -2.0625 C-8.04047352 -2.76649006 -4.40655795 -3.16665602 0 0 Z " fill="#ffffff" transform="translate(126.9375,27.375)"/>
<path d="M0 0 C0.89203125 0.01804687 1.7840625 0.03609375 2.703125 0.0546875 C3.71632813 0.08949219 3.71632813 0.08949219 4.75 0.125 C4.75 0.455 4.75 0.785 4.75 1.125 C2.11 1.455 -0.53 1.785 -3.25 2.125 C-0.28 2.62 -0.28 2.62 2.75 3.125 C2.75 3.455 2.75 3.785 2.75 4.125 C2.07453125 4.19976563 1.3990625 4.27453125 0.703125 4.3515625 C-5.30498077 5.12787315 -5.30498077 5.12787315 -9.625 9.125 C-10.16125 10.115 -10.6975 11.105 -11.25 12.125 C-13.5 13.5 -13.5 13.5 -15.25 14.125 C-14.86104749 8.67966487 -13.0351047 5.99813039 -9.25 2.125 C-6.09308986 0.12763435 -3.70232005 -0.09742948 0 0 Z " fill="#ffffff" transform="translate(58.25,23.875)"/>
<path d="M0 0 C2.625 0.25 2.625 0.25 4.4375 1.4375 C6.06075437 3.91509877 6.05144513 5.33595831 5.625 8.25 C4.125 10.5625 4.125 10.5625 2.625 12.25 C1.305 11.92 -0.015 11.59 -1.375 11.25 C-0.385 9.27 0.605 7.29 1.625 5.25 C-0.355 5.58 -2.335 5.91 -4.375 6.25 C-3.31585282 0.34903714 -3.31585282 0.34903714 0 0 Z " fill="#ffffff" transform="translate(56.375,33.75)"/>
<path d="M0 0 C-1.1328125 1.98046875 -1.1328125 1.98046875 -3 4 C-5.7421875 4.42578125 -5.7421875 4.42578125 -8.875 4.3125 C-10.41800781 4.27576172 -10.41800781 4.27576172 -11.9921875 4.23828125 C-14.73944685 4.02064122 -17.31551339 3.60921006 -20 3 C-20 2.34 -20 1.68 -20 1 C-19.03578125 0.93941406 -18.0715625 0.87882812 -17.078125 0.81640625 C-15.81484375 0.73261719 -14.5515625 0.64882812 -13.25 0.5625 C-11.99703125 0.48128906 -10.7440625 0.40007812 -9.453125 0.31640625 C-6.16084995 0.10714854 -6.16084995 0.10714854 -3.671875 -0.59765625 C-2 -1 -2 -1 0 0 Z " fill="#ffffff" transform="translate(99,99)"/>
<path d="M0 0 C2 1 2 1 3 2 C5.67058851 2.14115161 8.32432238 2.04247107 11 2 C11 2.33 11 2.66 11 3 C10.27554688 3.08636719 9.55109375 3.17273438 8.8046875 3.26171875 C2.32966663 4.20275512 -1.40926516 5.28519125 -6 10 C-6 9.34 -6 8.68 -6 8 C-6.66 7.67 -7.32 7.34 -8 7 C-5.36 4.69 -2.72 2.38 0 0 Z " fill="#ffffff" transform="translate(110,26)"/>
<path d="M0 0 C0 0.99 0 1.98 0 3 C-3.63 3.33 -7.26 3.66 -11 4 C-9 1 -9 1 -7.1875 0.3125 C-4.76407022 -0.03370425 -2.44491162 -0.06791421 0 0 Z " fill="#ffffff" transform="translate(121,25)"/>
<path d="M0 0 C0.91007812 0.00902344 1.82015625 0.01804687 2.7578125 0.02734375 C3.45648438 0.03894531 4.15515625 0.05054687 4.875 0.0625 C4.875 0.3925 4.875 0.7225 4.875 1.0625 C2.235 1.3925 -0.405 1.7225 -3.125 2.0625 C-0.155 2.5575 -0.155 2.5575 2.875 3.0625 C2.875 3.3925 2.875 3.7225 2.875 4.0625 C-1.58 4.5575 -1.58 4.5575 -6.125 5.0625 C-6.455 3.7425 -6.785 2.4225 -7.125 1.0625 C-4.60024538 -0.19987731 -2.81299534 -0.03606404 0 0 Z " fill="#ffffff" transform="translate(58.125,23.9375)"/>
</svg>
