<?xml version="1.0" encoding="UTF-8"?>
<svg version="1.1" xmlns="http://www.w3.org/2000/svg" width="172" height="172">
<path d="M0 0 C0.66 0 1.32 0 2 0 C2.94243518 3.91178892 3.06085585 7.42244075 2.9140625 11.4375 C2.87023437 12.66210938 2.82640625 13.88671875 2.78125 15.1484375 C2.7296875 16.41945313 2.678125 17.69046875 2.625 19 C2.58117187 20.27101563 2.53734375 21.54203125 2.4921875 22.8515625 C2.1012691 33.1674647 2.1012691 33.1674647 1 38 C2.25103516 37.98259766 2.25103516 37.98259766 3.52734375 37.96484375 C25.50020448 37.78865815 25.50020448 37.78865815 33 45 C33 46.32 33 47.64 33 49 C28.28945007 47.77525702 24.36810347 46.18405173 20 44 C8.59831685 40.90194561 -4.96474911 42.45623391 -16 46 C-17.33078741 46.34335662 -18.66327243 46.68055002 -20 47 C-18.70987531 43.12962593 -17.33566235 42.73811505 -13.8125 40.8125 C-12.87019531 40.28269531 -11.92789063 39.75289062 -10.95703125 39.20703125 C-7.71983938 37.88564117 -5.45736355 37.90735189 -2 38 C-2.01047363 36.99098633 -2.02094727 35.98197266 -2.03173828 34.94238281 C-2.06798497 31.19274453 -2.09091743 27.4431217 -2.10986328 23.69335938 C-2.11991023 22.07158808 -2.13355015 20.44983484 -2.15087891 18.828125 C-2.17518493 16.49474626 -2.18649613 14.1616074 -2.1953125 11.828125 C-2.20563507 11.10506165 -2.21595764 10.38199829 -2.22659302 9.63702393 C-2.22741782 5.92201961 -2.06235471 3.15418955 0 0 Z " fill="#ffffff" transform="translate(70,41)"/>
<path d="M0 0 C4.33995881 0.50076448 6.78092895 3.25037681 10 6 C13.84152708 8.65183429 18.06757542 8.34399133 22.5625 8.3125 C23.77413818 8.30621582 23.77413818 8.30621582 25.01025391 8.29980469 C31.40672645 8.17943063 36.96484926 7.15605535 43 5 C44.64935547 4.46052734 44.64935547 4.46052734 46.33203125 3.91015625 C49.22953416 2.96231187 52.11708963 1.99115767 55 1 C53.99138318 3.60924787 53.33501908 4.79748847 50.90625 6.265625 C50.1121875 6.59046875 49.318125 6.9153125 48.5 7.25 C47.7059375 7.58515625 46.911875 7.9203125 46.09375 8.265625 C44 9 44 9 42 9 C41.67 9.99 41.34 10.98 41 12 C39.02 12 37.04 12 35 12 C35.00523682 12.70906494 35.01047363 13.41812988 35.01586914 14.14868164 C35.18272378 40.20123904 35.18272378 40.20123904 34 53 C33.01 53 32.02 53 31 53 C30.93152212 43.88198053 31.13140869 34.79768262 31.5 25.6875 C31.54769531 24.45837891 31.59539062 23.22925781 31.64453125 21.96289062 C31.76078516 18.97516512 31.87930393 15.98754877 32 13 C30.33324219 13.06960937 30.33324219 13.06960937 28.6328125 13.140625 C18.72251713 13.43151424 9.7028038 13.48447687 1.875 6.5 C0 4 0 4 0 0 Z " fill="#ffffff" transform="translate(53,24)"/>
<path d="M0 0 C0.66 0 1.32 0 2 0 C2.94243518 3.91178892 3.06085585 7.42244075 2.9140625 11.4375 C2.87023437 12.66210938 2.82640625 13.88671875 2.78125 15.1484375 C2.7296875 16.41945313 2.678125 17.69046875 2.625 19 C2.58117187 20.27101563 2.53734375 21.54203125 2.4921875 22.8515625 C2.1012691 33.1674647 2.1012691 33.1674647 1 38 C0.67 38 0.34 38 0 38 C0 35.03 0 32.06 0 29 C-0.66 29 -1.32 29 -2 29 C-2.0580772 24.91672643 -2.09362249 20.83355917 -2.125 16.75 C-2.14175781 15.59113281 -2.15851563 14.43226562 -2.17578125 13.23828125 C-2.18222656 12.12324219 -2.18867187 11.00820313 -2.1953125 9.859375 C-2.20578613 8.83295898 -2.21625977 7.80654297 -2.22705078 6.74902344 C-1.99836111 3.98015712 -1.4243299 2.35581208 0 0 Z " fill="#ffffff" transform="translate(70,41)"/>
<path d="M0 0 C4.33995881 0.50076448 6.78092895 3.25037681 10 6 C13.22184586 8.00067607 15.65562641 8.23715971 19.421875 8.1953125 C20.44667969 8.18886719 21.47148438 8.18242188 22.52734375 8.17578125 C24.12255859 8.15064453 24.12255859 8.15064453 25.75 8.125 C26.82894531 8.11597656 27.90789062 8.10695313 29.01953125 8.09765625 C31.67991278 8.07411305 34.33984336 8.04122799 37 8 C33.66688525 9.7824918 30.75519057 10.48792856 27 11 C29.475 11.495 29.475 11.495 32 12 C32 12.33 32 12.66 32 13 C10.18108527 13.91123078 10.18108527 13.91123078 1.875 6.5 C0 4 0 4 0 0 Z " fill="#ffffff" transform="translate(53,24)"/>
<path d="M0 0 C0.66 0 1.32 0 2 0 C2.33 2.97 2.66 5.94 3 9 C3.71027344 9.04898438 4.42054687 9.09796875 5.15234375 9.1484375 C6.53099609 9.26058594 6.53099609 9.26058594 7.9375 9.375 C8.85402344 9.44460937 9.77054688 9.51421875 10.71484375 9.5859375 C11.84599609 9.79089844 11.84599609 9.79089844 13 10 C13.33 10.66 13.66 11.32 14 12 C8.72 12 3.44 12 -2 12 C-2 12.66 -2 13.32 -2 14 C-3.91666667 14.47916667 -5.83333333 14.95833333 -7.75 15.4375 C-8.81734375 15.70433594 -9.8846875 15.97117187 -10.984375 16.24609375 C-12.78645833 16.69661458 -14.58854167 17.14713542 -16.390625 17.59765625 C-17.18726563 17.79681641 -17.18726563 17.79681641 -18 18 C-16.70987531 14.12962593 -15.33566235 13.73811505 -11.8125 11.8125 C-10.87019531 11.28269531 -9.92789063 10.75289062 -8.95703125 10.20703125 C-5.73953142 8.89367927 -3.44062867 8.77062476 0 9 C0 6.03 0 3.06 0 0 Z " fill="#ffffff" transform="translate(68,70)"/>
<path d="M0 0 C0 0.99 0 1.98 0 3 C-1.62249941 3.83819158 -3.24808497 4.6704116 -4.875 5.5 C-5.77992187 5.9640625 -6.68484375 6.428125 -7.6171875 6.90625 C-10 8 -10 8 -12 8 C-12.33 8.99 -12.66 9.98 -13 11 C-14.65 11 -16.3 11 -18 11 C-17.360625 10.71125 -16.72125 10.4225 -16.0625 10.125 C-13.84793921 9.17176549 -13.84793921 9.17176549 -13 7 C-14.32 6.67 -15.64 6.34 -17 6 C-15.41058594 5.47599609 -15.41058594 5.47599609 -13.7890625 4.94140625 C-12.40101541 4.48185012 -11.01299601 4.02221036 -9.625 3.5625 C-8.57699219 3.21735352 -8.57699219 3.21735352 -7.5078125 2.86523438 C-3.68189163 1.61264601 -3.68189163 1.61264601 0 0 Z " fill="#ffffff" transform="translate(107,25)"/>
<path d="M0 0 C-2 1 -4 2 -6 3 C-4.68 3.66 -3.36 4.32 -2 5 C-3.91666667 5.47916667 -5.83333333 5.95833333 -7.75 6.4375 C-8.81734375 6.70433594 -9.8846875 6.97117187 -10.984375 7.24609375 C-12.78645833 7.69661458 -14.58854167 8.14713542 -16.390625 8.59765625 C-16.92171875 8.73042969 -17.4528125 8.86320312 -18 9 C-16.70987531 5.12962593 -15.33566235 4.73811505 -11.8125 2.8125 C-10.87019531 2.28269531 -9.92789063 1.75289063 -8.95703125 1.20703125 C-5.73953142 -0.10632073 -3.44062867 -0.22937524 0 0 Z " fill="#ffffff" transform="translate(68,79)"/>
<path d="M0 0 C0 0.99 0 1.98 0 3 C-2.99833285 5.46921528 -4.40259059 6.05635938 -8.3125 5.6875 C-9.199375 5.460625 -10.08625 5.23375 -11 5 C-8.49751135 3.33167423 -6.58850813 2.37618326 -3.8125 1.375 C-3.09707031 1.11460938 -2.38164063 0.85421875 -1.64453125 0.5859375 C-1.10183594 0.39257812 -0.55914062 0.19921875 0 0 Z " fill="#ffffff" transform="translate(107,25)"/>
<path d="M0 0 C-2 1 -4 2 -6 3 C-4.68 3.66 -3.36 4.32 -2 5 C-4.31 5 -6.62 5 -9 5 C-9.33 4.01 -9.66 3.02 -10 2 C-6.5980513 -0.09350689 -3.94727588 -0.17942163 0 0 Z " fill="#ffffff" transform="translate(68,79)"/>
</svg>
