<?xml version="1.0" encoding="UTF-8"?>
<svg version="1.1" xmlns="http://www.w3.org/2000/svg" width="172" height="172">
<path d="M0 0 C2.83607473 1.76605386 5.20710159 3.58991409 7.5703125 5.953125 C8.21886565 10.13268972 8.46784865 12.53370688 6.1796875 16.15234375 C3.08298785 19.79433182 -0.02531291 22.93969661 -4.4296875 24.953125 C-5.0896875 24.953125 -5.7496875 24.953125 -6.4296875 24.953125 C-6.4296875 25.613125 -6.4296875 26.273125 -6.4296875 26.953125 C-20.99853143 33.14949406 -36.39120382 35.83650054 -51.9609375 31.19921875 C-53.78385417 30.45052083 -55.60677083 29.70182292 -57.4296875 28.953125 C-57.4296875 28.293125 -57.4296875 27.633125 -57.4296875 26.953125 C-58.13480469 26.86804688 -58.83992188 26.78296875 -59.56640625 26.6953125 C-63.08526433 25.78319376 -65.31344721 24.21881068 -68.2421875 22.078125 C-69.21800781 21.37945312 -70.19382813 20.68078125 -71.19921875 19.9609375 C-71.93527344 19.29835938 -72.67132813 18.63578125 -73.4296875 17.953125 C-73.4296875 16.963125 -73.4296875 15.973125 -73.4296875 14.953125 C-70.25834843 16.41237441 -67.64941024 18.22885314 -64.8671875 20.328125 C-52.72596023 28.93638067 -37.94921285 30.55278205 -23.4296875 28.953125 C-13.2939947 26.76366035 -1.24390246 21.90074922 4.5703125 12.953125 C5.3203125 9.953125 5.3203125 9.953125 4.5703125 6.953125 C1.63037906 3.76119727 -0.21417024 3.1041018 -4.51171875 2.5703125 C-11.63306222 2.28206354 -11.63306222 2.28206354 -18.2421875 4.578125 C-20.70200489 6.80970323 -20.70200489 6.80970323 -20.9296875 10.078125 C-20.69282429 13.07365048 -20.69282429 13.07365048 -18.4296875 14.953125 C-15.76725929 15.41602721 -15.76725929 15.41602721 -12.8046875 15.578125 C-11.80179688 15.65289062 -10.79890625 15.72765625 -9.765625 15.8046875 C-8.99476562 15.85367188 -8.22390625 15.90265625 -7.4296875 15.953125 C-7.4296875 16.613125 -7.4296875 17.273125 -7.4296875 17.953125 C-10.62346832 19.55001541 -13.95490065 19.32661457 -17.4296875 18.953125 C-20.37414088 17.67292788 -21.90812284 16.69821737 -23.7421875 14.078125 C-24.5821868 11.48176352 -24.72392023 9.67477775 -24.4296875 6.953125 C-22.78515625 4.96875 -22.78515625 4.96875 -20.6171875 3.203125 C-19.90949219 2.61015625 -19.20179687 2.0171875 -18.47265625 1.40625 C-13.36630421 -2.22580155 -5.67959193 -2.44715537 0 0 Z " fill="#ffffff" transform="translate(114.4296875,57.046875)"/>
<path d="M0 0 C1.94921875 1.6015625 1.94921875 1.6015625 4.76171875 4.3515625 C4.76171875 5.0115625 4.76171875 5.6715625 4.76171875 6.3515625 C1.72906975 4.89088294 -1.12135858 3.2387156 -3.98828125 1.4765625 C-14.94055451 -5.1076487 -23.91036271 -7.86940857 -36.73828125 -8.2734375 C-37.75148437 -8.31210937 -38.7646875 -8.35078125 -39.80859375 -8.390625 C-42.28498409 -8.48407369 -44.76138276 -8.56983623 -47.23828125 -8.6484375 C-47.23828125 -7.9884375 -47.23828125 -7.3284375 -47.23828125 -6.6484375 C-48.21667969 -6.36871094 -49.19507812 -6.08898438 -50.203125 -5.80078125 C-59.42424534 -3.03103297 -67.66058034 -0.01498886 -73.23828125 8.3515625 C-73.70984086 12.52853491 -73.70984086 12.52853491 -71.92578125 16.1640625 C-67.3657107 19.37300103 -61.556319 18.9079333 -56.23828125 18.3515625 C-53.27436075 17.29103469 -50.95233721 15.99023779 -48.23828125 14.3515625 C-47.82081517 11.47791459 -47.82081517 11.47791459 -48.23828125 8.3515625 C-51.17816198 5.59542432 -53.66132526 5.18478784 -57.55078125 5.1640625 C-59.37609375 5.256875 -59.37609375 5.256875 -61.23828125 5.3515625 C-61.23828125 4.3615625 -61.23828125 3.3715625 -61.23828125 2.3515625 C-57.60828125 2.3515625 -53.97828125 2.3515625 -50.23828125 2.3515625 C-50.23828125 3.0115625 -50.23828125 3.6715625 -50.23828125 4.3515625 C-49.61953125 4.6196875 -49.00078125 4.8878125 -48.36328125 5.1640625 C-46.23828125 6.3515625 -46.23828125 6.3515625 -44.23828125 9.3515625 C-44.32257469 13.22906052 -44.9790249 15.01605428 -47.36328125 18.1015625 C-53.70450195 23.06425696 -59.40128419 22.4915267 -67.15234375 22.03125 C-70.78921695 21.23021717 -72.56845766 19.90572586 -75.23828125 17.3515625 C-76.89419704 14.03973092 -76.98252211 10.90390542 -76.23828125 7.3515625 C-70.44703759 -2.37917919 -59.75749333 -7.65391727 -49.23828125 -10.6484375 C-31.59529064 -14.30375323 -14.5532638 -10.71811051 0 0 Z " fill="#ffffff" transform="translate(117.23828125,39.6484375)"/>
<path d="M0 0 C1.94921875 1.6015625 1.94921875 1.6015625 4.76171875 4.3515625 C4.76171875 5.0115625 4.76171875 5.6715625 4.76171875 6.3515625 C1.72906975 4.89088294 -1.12135858 3.2387156 -3.98828125 1.4765625 C-14.94055451 -5.1076487 -23.91036271 -7.86940857 -36.73828125 -8.2734375 C-38.25808594 -8.33144531 -38.25808594 -8.33144531 -39.80859375 -8.390625 C-42.28498409 -8.48407369 -44.76138276 -8.56983623 -47.23828125 -8.6484375 C-47.23828125 -7.9884375 -47.23828125 -7.3284375 -47.23828125 -6.6484375 C-52.68328125 -5.1634375 -52.68328125 -5.1634375 -58.23828125 -3.6484375 C-58.89828125 -4.6384375 -59.55828125 -5.6284375 -60.23828125 -6.6484375 C-58.53250783 -7.30100206 -56.82352036 -7.94516791 -55.11328125 -8.5859375 C-54.16195312 -8.94558594 -53.210625 -9.30523438 -52.23046875 -9.67578125 C-34.31582041 -15.49921132 -14.90498516 -10.97714439 0 0 Z " fill="#ffffff" transform="translate(117.23828125,39.6484375)"/>
<path d="M0 0 C0.99386719 0.00902344 1.98773438 0.01804688 3.01171875 0.02734375 C4.15060547 0.04474609 4.15060547 0.04474609 5.3125 0.0625 C4.3225 1.5475 4.3225 1.5475 3.3125 3.0625 C1.140625 3.43359375 1.140625 3.43359375 -1.4375 3.5 C-6.18240352 3.85758693 -9.16557777 4.63325993 -12.6875 8.0625 C-13.35471536 11.14809301 -13.35471536 11.14809301 -12.6875 14.0625 C-10.09823669 16.65176331 -8.66044721 16.43648043 -5.0625 16.6875 C-4.05960938 16.76226562 -3.05671875 16.83703125 -2.0234375 16.9140625 C-1.25257812 16.96304688 -0.48171875 17.01203125 0.3125 17.0625 C0.3125 17.7225 0.3125 18.3825 0.3125 19.0625 C-2.88128082 20.65939041 -6.21271315 20.43598957 -9.6875 20.0625 C-12.63195338 18.78230288 -14.16593534 17.80759237 -16 15.1875 C-16.8399993 12.59113852 -16.98173273 10.78415275 -16.6875 8.0625 C-15.04296875 6.078125 -15.04296875 6.078125 -12.875 4.3125 C-12.16730469 3.71953125 -11.45960937 3.1265625 -10.73046875 2.515625 C-7.17535134 -0.01306272 -4.23266725 -0.04979609 0 0 Z " fill="#ffffff" transform="translate(106.6875,55.9375)"/>
<path d="M0 0 C3.17133907 1.45924941 5.78027726 3.27572814 8.5625 5.375 C18.03013743 12.08765283 28.02239688 13.93636185 39.375 14.5625 C40.11105469 14.60568359 40.84710938 14.64886719 41.60546875 14.69335938 C43.40348068 14.79843799 45.20171958 14.89962093 47 15 C47 15.33 47 15.66 47 16 C43.33475597 16.257487 39.66815029 16.47579023 36 16.6875 C34.97003906 16.76033203 33.94007812 16.83316406 32.87890625 16.90820312 C26.40144723 17.25889358 21.89419848 16.75582116 16 14 C16 13.34 16 12.68 16 12 C14.94232422 11.87238281 14.94232422 11.87238281 13.86328125 11.7421875 C10.34442317 10.83006876 8.11624029 9.26568568 5.1875 7.125 C4.21167969 6.42632812 3.23585937 5.72765625 2.23046875 5.0078125 C1.49441406 4.34523438 0.75835937 3.68265625 0 3 C0 2.01 0 1.02 0 0 Z " fill="#ffffff" transform="translate(41,72)"/>
<path d="M0 0 C3.63 0 7.26 0 11 0 C11 0.66 11 1.32 11 2 C11.61875 2.268125 12.2375 2.53625 12.875 2.8125 C15 4 15 4 17 7 C16.91456329 10.9300886 16.2409771 12.6901723 13.8125 15.8125 C8.48594639 19.95537503 3.3419459 18.99559547 -3.0234375 18.25390625 C-3.67570312 18.17011719 -4.32796875 18.08632813 -5 18 C-5 17.67 -5 17.34 -5 17 C-4.11957031 16.89042969 -3.23914062 16.78085937 -2.33203125 16.66796875 C-1.17058594 16.50941406 -0.00914063 16.35085937 1.1875 16.1875 C2.33605469 16.03667969 3.48460937 15.88585938 4.66796875 15.73046875 C8.06473097 14.98580927 10.24394026 14.10397906 13 12 C13.83333333 9 13.83333333 9 13 6 C10.06011927 3.24386182 7.57695599 2.83322534 3.6875 2.8125 C1.8621875 2.9053125 1.8621875 2.9053125 0 3 C0 2.01 0 1.02 0 0 Z " fill="#ffffff" transform="translate(56,42)"/>
<path d="M0 0 C11.82658888 -0.68892751 11.82658888 -0.68892751 15.625 1.875 C19.96751269 5.76040609 19.96751269 5.76040609 20.5 9.6875 C20.43286625 14.27777014 18.40585058 16.54208088 15.3125 19.75 C14.879375 20.1625 14.44625 20.575 14 21 C13.34 20.67 12.68 20.34 12 20 C12.54140625 19.34644531 12.54140625 19.34644531 13.09375 18.6796875 C15.41352757 15.70263962 16.88181256 13.54795994 17.6875 9.8125 C17.21816763 6.81414349 17.21816763 6.81414349 14.6875 4.75 C10.22428793 2.16886531 5.0345626 1.68083053 0 1 C0 0.67 0 0.34 0 0 Z " fill="#ffffff" transform="translate(102,57)"/>
<path d="M0 0 C9.4437865 -0.59619864 17.17944955 4.42882294 24.3125 10.3125 C27 13 27 13 27 15 C23.967351 13.53932044 21.11692267 11.8871531 18.25 10.125 C12.37262777 6.57607126 6.437929 3.41422338 0 1 C0 0.67 0 0.34 0 0 Z " fill="#ffffff" transform="translate(95,31)"/>
<path d="M0 0 C0.66 0.33 1.32 0.66 2 1 C2 1.66 2 2.32 2 3 C-2.38461538 6 -2.38461538 6 -5 6 C-5 6.66 -5 7.32 -5 8 C-11.45 10.23269231 -11.45 10.23269231 -14.234375 9.0546875 C-14.81703125 8.70664063 -15.3996875 8.35859375 -16 8 C-15.18015625 7.67386719 -14.3603125 7.34773438 -13.515625 7.01171875 C-12.43796875 6.57472656 -11.3603125 6.13773437 -10.25 5.6875 C-9.18265625 5.25824219 -8.1153125 4.82898438 -7.015625 4.38671875 C-4.3347085 3.15391388 -2.2616808 1.87192513 0 0 Z " fill="#ffffff" transform="translate(113,76)"/>
<path d="M0 0 C3.63 0 7.26 0 11 0 C11 0.66 11 1.32 11 2 C11.639375 2.309375 12.27875 2.61875 12.9375 2.9375 C15 4 15 4 16 5 C16.04063832 6.66617115 16.042721 8.33388095 16 10 C15.4225 9.21625 14.845 8.4325 14.25 7.625 C11.60537692 4.51638874 11.60537692 4.51638874 8 3 C5.30903473 2.84992694 2.69998637 2.91000045 0 3 C0 2.01 0 1.02 0 0 Z " fill="#ffffff" transform="translate(56,42)"/>
<path d="M0 0 C2.50063365 0.46308031 4.02373057 1.01675099 6.125 2.5 C10.266633 4.660852 14.38848575 4.7403225 19 5 C18.67 5.66 18.34 6.32 18 7 C15.9367016 6.93958131 13.87422586 6.85068362 11.8125 6.75 C10.66394531 6.70359375 9.51539063 6.6571875 8.33203125 6.609375 C4.48948992 5.90663591 2.73778926 4.74294517 0 2 C0 1.34 0 0.68 0 0 Z " fill="#ffffff" transform="translate(42,55)"/>
<path d="M0 0 C-0.99 0.33 -1.98 0.66 -3 1 C-2.67 1.66 -2.34 2.32 -2 3 C-7.445 4.485 -7.445 4.485 -13 6 C-13.66 5.01 -14.32 4.02 -15 3 C-13.25531628 2.29911844 -11.50398839 1.61475991 -9.75 0.9375 C-8.77546875 0.55464844 -7.8009375 0.17179687 -6.796875 -0.22265625 C-3.95992605 -1.01113787 -2.70590448 -1.02437812 0 0 Z " fill="#ffffff" transform="translate(72,30)"/>
<path d="M0 0 C0.99386719 0.00902344 1.98773438 0.01804688 3.01171875 0.02734375 C4.15060547 0.04474609 4.15060547 0.04474609 5.3125 0.0625 C3.3125 3.0625 3.3125 3.0625 1.03515625 3.5390625 C-0.28162109 3.61253906 -0.28162109 3.61253906 -1.625 3.6875 C-4.61782789 3.87262337 -6.81888156 4.10629385 -9.6875 5.0625 C-9.375 3.125 -9.375 3.125 -8.6875 1.0625 C-5.53819107 0.01273036 -3.29935544 -0.03881595 0 0 Z " fill="#ffffff" transform="translate(106.6875,55.9375)"/>
<path d="M0 0 C-2.7819368 3.27286682 -6.27954067 4.96427697 -10 7 C-10.66 6.34 -11.32 5.68 -12 5 C-4.88610478 -0.74031891 -4.88610478 -0.74031891 0 0 Z " fill="#ffffff" transform="translate(60,34)"/>
<path d="M0 0 C1.43931117 0.45261358 2.87638999 0.91232979 4.3125 1.375 C5.11300781 1.63023438 5.91351563 1.88546875 6.73828125 2.1484375 C9 3 9 3 12 5 C10.41590006 4.88512252 8.83271037 4.75765492 7.25 4.625 C6.36828125 4.55539063 5.4865625 4.48578125 4.578125 4.4140625 C2.00933618 4.00149945 0.24158985 3.28839043 -2 2 C-1.34 1.34 -0.68 0.68 0 0 Z " fill="#ffffff" transform="translate(59,83)"/>
<path d="M0 0 C0.75 1.625 0.75 1.625 1 4 C-0.9375 7.25 -0.9375 7.25 -3 10 C-5 9 -5 9 -6 7 C-5.01 6.34 -4.02 5.68 -3 5 C-1.86649466 2.98330173 -1.86649466 2.98330173 -1 1 C-0.67 0.67 -0.34 0.34 0 0 Z " fill="#ffffff" transform="translate(72,49)"/>
<path d="M0 0 C3.86933162 0.57323431 6.15222057 2.38953552 9 5 C9 5.66 9 6.32 9 7 C5.18315774 5.44499019 2.80804268 2.96404505 0 0 Z " fill="#ffffff" transform="translate(113,39)"/>
<path d="M0 0 C3.35595828 0.59927826 5.37801226 1.84622436 8 4 C7.67 4.66 7.34 5.32 7 6 C2.32307692 4.52307692 2.32307692 4.52307692 0.6875 1.875 C0.460625 1.25625 0.23375 0.6375 0 0 Z " fill="#ffffff" transform="translate(42,55)"/>
<path d="M0 0 C4.44936709 -0.36075949 4.44936709 -0.36075949 6.8125 1.1875 C8.36678206 3.55982525 8.22537188 5.22041345 8 8 C7.4225 7.236875 6.845 6.47375 6.25 5.6875 C4.28296907 3.33799083 2.51523256 1.70676495 0 0 Z " fill="#ffffff" transform="translate(64,44)"/>
</svg>
