<?xml version="1.0" encoding="UTF-8"?>
<svg version="1.1" xmlns="http://www.w3.org/2000/svg" width="172" height="172">
<path fill-rule="evenodd" d="M0 0 C4.66122453 2.96552989 7.65135824 5.97881995 10.3515625 10.87109375 C11.99786817 20.88517377 9.7846591 28.9780333 5.3515625 37.87109375 C4.6699368 39.53169865 3.99837946 41.19662367 3.3515625 42.87109375 C2.6915625 42.87109375 2.0315625 42.87109375 1.3515625 42.87109375 C1.16980469 43.50015625 0.98804688 44.12921875 0.80078125 44.77734375 C-0.43534484 48.98651158 -1.7037792 53.14797111 -3.2734375 57.24609375 C-5.20977279 62.3509777 -6.04234468 66.35639325 -5.6484375 71.87109375 C-4.28958634 74.27192813 -4.28958634 74.27192813 -2.6484375 75.87109375 C0.22467822 75.92284927 0.22467822 75.92284927 3.3515625 74.87109375 C5.11667549 72.64598161 6.12454026 70.46671772 7.3515625 67.87109375 C8.3415625 67.87109375 9.3315625 67.87109375 10.3515625 67.87109375 C10.95996084 72.02848239 10.36255842 74.43421635 7.9140625 77.74609375 C5.3813441 80.4285 3.5420377 81.44635972 -0.1484375 81.74609375 C-3.70750942 81.4329436 -5.67676787 80.51229054 -8.2109375 77.99609375 C-12.11611247 72.58308733 -11.17634737 67.405576 -10.23828125 61.125 C-8.20897393 51.22036757 -3.2378787 42.6236017 1.46142578 33.78320312 C5.12585243 26.72235756 6.4437851 19.85272047 5.3515625 11.87109375 C2.9175313 8.64764703 0.68951685 7.09639665 -2.6484375 4.87109375 C-8.83501155 4.0382857 -14.35402088 4.52156487 -19.6484375 7.87109375 C-22.50573555 12.6639808 -23.04505544 16.37352844 -22.6484375 21.87109375 C-21.69245389 25.31683689 -20.44814784 28.64284172 -19.2109375 31.99609375 C-12.37370369 51.67619356 -12.37370369 51.67619356 -16.6484375 61.30859375 C-19.29711608 65.70870207 -21.82572043 69.76063978 -26.6484375 71.87109375 C-32.57040582 72.7639229 -39.09088277 73.07638702 -44.6484375 70.49609375 C-49.42328119 66.31810552 -52.91228553 61.60242891 -54.16015625 55.27734375 C-54.45673559 48.65032953 -52.66277037 43.27491907 -48.2578125 38.30078125 C-44.89850417 35.20668147 -42.14385289 34.14081867 -37.6484375 33.87109375 C-37.00648437 33.82082031 -36.36453125 33.77054688 -35.703125 33.71875 C-30.90936844 33.49090986 -27.85397099 34.34777366 -23.6484375 36.87109375 C-23.85339844 36.195625 -24.05835937 35.52015625 -24.26953125 34.82421875 C-24.53894531 33.9321875 -24.80835937 33.04015625 -25.0859375 32.12109375 C-25.35277344 31.239375 -25.61960937 30.35765625 -25.89453125 29.44921875 C-27.93287675 22.47871082 -28.84923794 15.61476571 -26.5859375 8.55859375 C-20.25065133 -0.22906127 -10.57688738 -4.50843725 0 0 Z M-29.6484375 37.87109375 C-25.38678856 40.19894651 -22.33954134 42.83443649 -19.6484375 46.87109375 C-18.76652971 52.09755784 -19.10891498 56.68209163 -21.7734375 61.30859375 C-24.28319814 64.77879352 -26.47403183 66.58666124 -30.6484375 67.87109375 C-34.89653307 68.39740647 -38.43684029 68.32880825 -42.4609375 66.80859375 C-46.18321421 63.51172009 -48.30284937 60.29789042 -49 55.40234375 C-49.17148928 50.22648562 -48.8071743 46.15067264 -45.6484375 41.87109375 C-40.63678948 38.06224126 -35.92772569 36.41954597 -29.6484375 37.87109375 Z " fill="#ffffff" transform="translate(92.6484375,22.12890625)"/>
<path d="M0 0 C0.99 0.33 1.98 0.66 3 1 C4.2077558 4.62326739 3.54311128 5.64146369 2 9 C1.34 8.01 0.68 7.02 0 6 C-1.32 6.99 -2.64 7.98 -4 9 C-2.80100302 5.9168649 -1.52299523 2.93720508 0 0 Z " fill="#ffffff" transform="translate(94,56)"/>
<path d="M0 0 C0.66 0.33 1.32 0.66 2 1 C-0.97 3.97 -3.94 6.94 -7 10 C-7 6.04435836 -5.59478606 4.89133304 -3 2 C-2.01 1.34 -1.02 0.68 0 0 Z " fill="#ffffff" transform="translate(49,57)"/>
</svg>
