<?xml version="1.0" encoding="UTF-8"?>
<svg version="1.1" xmlns="http://www.w3.org/2000/svg" width="172" height="172">
<path fill-rule="evenodd" d="M0 0 C0.78246094 -0.03738281 1.56492187 -0.07476562 2.37109375 -0.11328125 C4.5625 0.3125 4.5625 0.3125 6.3046875 2.00390625 C7.74571289 4.64876961 8.05306351 6.5690653 8.25 9.5625 C8.34861328 10.90054688 8.34861328 10.90054688 8.44921875 12.265625 C8.48660156 12.94109375 8.52398437 13.6165625 8.5625 14.3125 C8.97242187 13.54164062 9.38234375 12.77078125 9.8046875 11.9765625 C10.34351562 10.97367188 10.88234375 9.97078125 11.4375 8.9375 C11.97117187 7.93976562 12.50484375 6.94203125 13.0546875 5.9140625 C14.5625 3.3125 14.5625 3.3125 16.5625 1.3125 C17.8825 1.3125 19.2025 1.3125 20.5625 1.3125 C22.60598237 4.71113383 22.86085885 7.45670103 22.9765625 11.390625 C23.03457031 13.13085938 23.03457031 13.13085938 23.09375 14.90625 C23.1246875 16.1128125 23.155625 17.319375 23.1875 18.5625 C23.24550781 20.39554688 23.24550781 20.39554688 23.3046875 22.265625 C23.39892108 25.2810994 23.48453455 28.29656828 23.5625 31.3125 C23.85382813 30.14074219 24.14515625 28.96898437 24.4453125 27.76171875 C29.76413992 7.11086008 29.76413992 7.11086008 36.5625 0.3125 C39 -0.0625 39 -0.0625 41.5625 0.3125 C43.52743948 2.3801204 44.47814475 3.73105131 44.890625 6.57421875 C44.85195312 7.77498047 44.85195312 7.77498047 44.8125 9 C44.77382812 10.30130859 44.77382812 10.30130859 44.734375 11.62890625 C44.48335563 15.54823137 44.06511421 19.41723991 43.5625 23.3125 C44.34625 23.27125 45.13 23.23 45.9375 23.1875 C48.5625 23.3125 48.5625 23.3125 50.5625 25.3125 C51.69150945 34.84371666 50.55766273 43.13999382 47.25366211 52.08251953 C45.52031791 56.68677726 45.52031791 56.68677726 46.5625 61.3125 C47.79204016 63.12549492 47.79204016 63.12549492 49.5625 64.3125 C50.8825 64.3125 52.2025 64.3125 53.5625 64.3125 C54.0575 63.3225 54.0575 63.3225 54.5625 62.3125 C56.5425 62.8075 56.5425 62.8075 58.5625 63.3125 C57.98905063 66.17974686 57.7010485 67.1739515 55.5625 69.3125 C52.25 69.75 52.25 69.75 48.5625 69.3125 C45.8125 66.8125 45.8125 66.8125 43.5625 64.3125 C40.4001401 64.01841415 40.4001401 64.01841415 37.8125 66.3125 C33.93673585 68.69758563 32.03525104 69.04440472 27.5625 68.3125 C24.625 66 24.625 66 22.5625 63.3125 C22.5625 62.3225 22.5625 61.3325 22.5625 60.3125 C23.2225 60.3125 23.8825 60.3125 24.5625 60.3125 C25.0575 62.2925 25.0575 62.2925 25.5625 64.3125 C31.92327959 64.84051764 31.92327959 64.84051764 37.625 62.3125 C38.264375 61.6525 38.90375 60.9925 39.5625 60.3125 C39.418125 59.7040625 39.27375 59.095625 39.125 58.46875 C36.57089603 46.4077035 37.14095382 34.87695128 39.1171875 22.796875 C39.8611085 16.97601943 39.7227029 11.16880598 39.5625 5.3125 C31.77563877 11.71707817 29.28342644 27.11466557 26.640625 36.53515625 C25.70006403 39.83052747 24.67475464 43.07179443 23.5625 46.3125 C22.5725 46.3125 21.5825 46.3125 20.5625 46.3125 C19.29624576 42.51373729 19.32951453 38.88828074 19.24609375 34.92578125 C19.22531265 34.10877243 19.20453156 33.29176361 19.18312073 32.44999695 C19.11776921 29.84174966 19.05880727 27.23340225 19 24.625 C18.95680108 22.85610946 18.91318635 21.08722903 18.86914062 19.31835938 C18.76210257 14.98317537 18.66079456 10.64789071 18.5625 6.3125 C17.9025 5.9825 17.2425 5.6525 16.5625 5.3125 C16.28148438 6.02664062 16.00046875 6.74078125 15.7109375 7.4765625 C14.97421104 9.29582579 14.21071797 11.10460783 13.4140625 12.8984375 C8.07845438 25.03099864 5.0098399 37.04887189 4.5625 50.3125 C3.9025 50.3125 3.2425 50.3125 2.5625 50.3125 C1.16626643 45.47268788 1.37832077 40.68857981 1.375 35.6875 C1.36275391 34.74003906 1.35050781 33.79257813 1.33789062 32.81640625 C1.32630513 27.17040696 1.82958295 21.9878857 3.10717773 16.48461914 C3.76044228 13.36821449 3.8208722 10.47755939 3.5625 7.3125 C1.92615337 4.09972409 1.92615337 4.09972409 -0.8125 3.8125 C-3.6089253 4.10674175 -3.6089253 4.10674175 -5.6875 6.375 C-7.70120177 9.75514226 -8.13213324 12.41907375 -8.4375 16.3125 C-7.4475 16.3125 -6.4575 16.3125 -5.4375 16.3125 C-5.4375 15.6525 -5.4375 14.9925 -5.4375 14.3125 C-4.4475 14.3125 -3.4575 14.3125 -2.4375 14.3125 C-2.7675 15.9625 -3.0975 17.6125 -3.4375 19.3125 C-8.85918675 19.79442771 -8.85918675 19.79442771 -11.3125 17.75 C-12.92840845 14.24886503 -13.02145175 12.14062816 -12.4375 8.3125 C-9.13278553 3.20888897 -6.20201593 0.19349475 0 0 Z M44.5 26.5 C47.26 26.5 49.5 33.37 49.5 42 C49.5 50.63 47.26 57.5 44.5 57.5 C41.74 57.5 39.5 50.63 39.5 42 C39.5 33.37 41.74 26.5 44.5 26.5 Z " fill="#ffffff" transform="translate(55.4375,32.6875)"/>
<path d="M0 0 C2.5625 0.375 2.5625 0.375 4.20703125 2.10546875 C5.76246341 4.70980905 5.90919946 6.05998166 5.8125 9.0625 C5.78671875 9.93003906 5.7609375 10.79757813 5.734375 11.69140625 C5.48335563 15.61073137 5.06511421 19.47973991 4.5625 23.375 C6.2125 23.375 7.8625 23.375 9.5625 23.375 C6.5625 25.375 6.5625 25.375 3.5625 25.375 C3.2325 22.735 2.9025 20.095 2.5625 17.375 C2.2325 17.375 1.9025 17.375 1.5625 17.375 C1.2325 13.415 0.9025 9.455 0.5625 5.375 C-2.65628093 8.59378093 -3.9248769 11.5422272 -5.5 15.6875 C-5.75587891 16.33912109 -6.01175781 16.99074219 -6.27539062 17.66210938 C-7.78152514 21.53004867 -9.15766707 25.42527635 -10.4375 29.375 C-10.7675 28.055 -11.0975 26.735 -11.4375 25.375 C-12.0975 25.375 -12.7575 25.375 -13.4375 25.375 C-8.65395201 1.33137723 -8.65395201 1.33137723 0 0 Z " fill="#ffffff" transform="translate(94.4375,32.625)"/>
<path d="M0 0 C0.66 0.33 1.32 0.66 2 1 C2 4 2 4 0.5625 5.75 C-1.51478758 8.74129412 -1.65603142 11.42272676 -2 15 C-1.01 15 -0.02 15 1 15 C1 14.34 1 13.68 1 13 C1.99 13 2.98 13 4 13 C3.67 14.65 3.34 16.3 3 18 C-2.42168675 18.48192771 -2.42168675 18.48192771 -4.875 16.4375 C-6.49090845 12.93636503 -6.58395175 10.82812816 -6 7 C-4.25275176 4.39685335 -2.2367048 2.19010679 0 0 Z " fill="#ffffff" transform="translate(49,34)"/>
<path d="M0 0 C1.43583001 -0.10836453 2.8740202 -0.18576167 4.3125 -0.25 C5.11300781 -0.29640625 5.91351563 -0.3428125 6.73828125 -0.390625 C9 0 9 0 10.75 1.5625 C12.42692702 4.83250769 12.518143 7.59188876 12.6875 11.25 C12.78611328 13.14492188 12.78611328 13.14492188 12.88671875 15.078125 C12.92410156 16.04234375 12.96148437 17.0065625 13 18 C11.33333333 18 9.66666667 18 8 18 C8.02320313 17.24074219 8.04640625 16.48148438 8.0703125 15.69921875 C8.08835937 14.70535156 8.10640625 13.71148437 8.125 12.6875 C8.14820313 11.70136719 8.17140625 10.71523438 8.1953125 9.69921875 C8.20682639 6.77593473 8.20682639 6.77593473 6 4 C2.43230448 3.26393501 2.43230448 3.26393501 -1 3 C-0.67 2.01 -0.34 1.02 0 0 Z " fill="#ffffff" transform="translate(51,33)"/>
<path d="M0 0 C2.0625 0.4375 2.0625 0.4375 4 1 C3.01 1.33 2.02 1.66 1 2 C1.66 2.33 2.32 2.66 3 3 C2.67 3.66 2.34 4.32 2 5 C1.34 4.67 0.68 4.34 0 4 C-0.2475 4.639375 -0.495 5.27875 -0.75 5.9375 C-2.40811572 9.99988351 -4.2035584 13.99724906 -6 18 C-6.66 17.01 -7.32 16.02 -8 15 C-6.89902402 9.73978143 -3.8542177 3.8542177 0 0 Z " fill="#ffffff" transform="translate(72,34)"/>
<path d="M0 0 C0.66 0 1.32 0 2 0 C2.33 1.32 2.66 2.64 3 4 C4.43739513 4.02712066 5.87493863 4.04645067 7.3125 4.0625 C8.11300781 4.07410156 8.91351563 4.08570312 9.73828125 4.09765625 C12.16861334 4.09657855 12.16861334 4.09657855 15 3 C15.66 3.66 16.32 4.32 17 5 C12.91821657 7.96856976 10.02104714 8.71729245 5 8 C2.0625 5.6875 2.0625 5.6875 0 3 C0 2.01 0 1.02 0 0 Z " fill="#ffffff" transform="translate(78,93)"/>
<path d="M0 0 C1.67542976 0.28604898 3.34385343 0.61781233 5 1 C5.05391993 2.79133978 5.09275571 4.58313899 5.125 6.375 C5.14820312 7.37273438 5.17140625 8.37046875 5.1953125 9.3984375 C5 12 5 12 3 14 C2.67 10.04 2.34 6.08 2 2 C1.01 1.67 0.02 1.34 -1 1 C-0.67 0.67 -0.34 0.34 0 0 Z " fill="#ffffff" transform="translate(94,34)"/>
<path d="M0 0 C0.33 0 0.66 0 1 0 C1 1.65 1 3.3 1 5 C1.99 5 2.98 5 4 5 C4 4.34 4 3.68 4 3 C4.99 3 5.98 3 7 3 C6.67 4.65 6.34 6.3 6 8 C4.02 8 2.04 8 0 8 C-1.43088528 5.13822943 -0.59991697 3.06624227 0 0 Z " fill="#ffffff" transform="translate(46,44)"/>
<path d="M0 0 C1.32 0.33 2.64 0.66 4 1 C3.125 4.875 3.125 4.875 2 6 C0.00041636 6.04080783 -2.00045254 6.04254356 -4 6 C-4 5.01 -4 4.02 -4 3 C-3.01 2.67 -2.02 2.34 -1 2 C-0.67 1.34 -0.34 0.68 0 0 Z " fill="#ffffff" transform="translate(110,95)"/>
<path d="M0 0 C0.78375 0.04125 1.5675 0.0825 2.375 0.125 C1.385 0.785 0.395 1.445 -0.625 2.125 C0.035 2.455 0.695 2.785 1.375 3.125 C1.045 3.785 0.715 4.445 0.375 5.125 C-2.625 6.125 -2.625 6.125 -4.625 6.125 C-5.615 6.62 -5.615 6.62 -6.625 7.125 C-4.07142857 0.19387755 -4.07142857 0.19387755 0 0 Z " fill="#ffffff" transform="translate(94.625,32.875)"/>
<path d="M0 0 C0.66 0 1.32 0 2 0 C2.33 1.32 2.66 2.64 3 4 C5.31 4.66 7.62 5.32 10 6 C10 6.33 10 6.66 10 7 C6.6875 7.25 6.6875 7.25 3 7 C1.0625 5.1875 1.0625 5.1875 0 3 C0 2.01 0 1.02 0 0 Z " fill="#ffffff" transform="translate(78,93)"/>
<path d="M0 0 C0.33 0 0.66 0 1 0 C1 2.97 1 5.94 1 9 C0.34 9 -0.32 9 -1 9 C-1.625 5.625 -1.625 5.625 -2 2 C-1.34 1.34 -0.68 0.68 0 0 Z " fill="#ffffff" transform="translate(45,41)"/>
<path d="M0 0 C2.0625 0.4375 2.0625 0.4375 4 1 C3.01 1.33 2.02 1.66 1 2 C1.66 2.33 2.32 2.66 3 3 C2.67 3.66 2.34 4.32 2 5 C1.34 4.67 0.68 4.34 0 4 C-0.33 4.66 -0.66 5.32 -1 6 C-1.66 5.67 -2.32 5.34 -3 5 C-1.125 1.125 -1.125 1.125 0 0 Z " fill="#ffffff" transform="translate(72,34)"/>
</svg>
