<?xml version="1.0" encoding="UTF-8"?>
<svg version="1.1" xmlns="http://www.w3.org/2000/svg" width="172" height="172">
<path d="M0 0 C5.91596731 3.34380761 11.24417823 8.54917382 13.6875 15 C14.53082327 23.51168139 14.4601446 30.69188796 9.6875 38 C15.2975 38 20.9075 38 26.6875 38 C27.1825 39.98 27.1825 39.98 27.6875 42 C25.45373909 44.23376091 20.37354888 43.23242609 17.375 43.25 C16.50681641 43.270625 15.63863281 43.29125 14.74414062 43.3125 C8.29280103 43.35210915 8.29280103 43.35210915 5.08203125 41.484375 C4.62183594 40.99453125 4.16164062 40.5046875 3.6875 40 C4.08667125 36.64696152 4.53935593 34.2548078 6.25 31.3125 C8.59528083 25.90815721 8.8957841 20.22746108 6.80859375 14.65234375 C3.45293773 8.72734055 -0.8969301 6.1385233 -7.3125 4 C-14.13111411 3.30658162 -17.99529373 4.68492795 -23.3125 9 C-27.93736929 13.86204207 -28.64544728 18.10601788 -28.61328125 24.625 C-28.19472244 27.92998386 -26.81905832 30.33819503 -25.21875 33.21875 C-23.96683128 35.67941783 -23.71292016 37.3018907 -24.3125 40 C-25.7421875 42.1171875 -25.7421875 42.1171875 -28.3125 44 C-31.53139609 44.54783281 -34.68145649 44.46733556 -37.9375 44.375 C-38.80890625 44.37371094 -39.6803125 44.37242188 -40.578125 44.37109375 C-47.03131132 44.28118868 -47.03131132 44.28118868 -49.3125 42 C-49.0625 39.4375 -49.0625 39.4375 -48.3125 37 C-45.42834117 35.55792059 -42.89528472 35.90605113 -39.6875 35.9375 C-38.49898437 35.94652344 -37.31046875 35.95554688 -36.0859375 35.96484375 C-35.17070313 35.97644531 -34.25546875 35.98804688 -33.3125 36 C-33.6425 35.071875 -33.9725 34.14375 -34.3125 33.1875 C-36.48736214 25.37060418 -36.03026763 17.69672284 -32.7109375 10.29296875 C-25.68082404 -1.23406087 -12.32674706 -5.5705605 0 0 Z " fill="#ffffff" transform="translate(93.3125,40)"/>
<path d="M0 0 C25.74 0.33 51.48 0.66 78 1 C79 5 79 5 78 7 C67.99500805 7.0462752 57.99004142 7.08184462 47.98496437 7.10362434 C43.33954726 7.11407582 38.69420319 7.12825979 34.04882812 7.15087891 C29.56846775 7.1725588 25.08817778 7.18455834 20.60776901 7.18975449 C18.89568345 7.19345899 17.18360188 7.20069266 15.47154617 7.21146011 C13.07941514 7.22591068 10.68757758 7.22798067 8.29541016 7.22705078 C7.58259384 7.23424133 6.86977753 7.24143188 6.13536072 7.24884033 C1.22810432 7.22810432 1.22810432 7.22810432 -1 5 C-0.67 3.35 -0.34 1.7 0 0 Z " fill="#ffffff" transform="translate(44,98)"/>
</svg>
