<?xml version="1.0" encoding="UTF-8"?>
<svg version="1.1" xmlns="http://www.w3.org/2000/svg" width="172" height="172">
<path d="M0 0 C3.50403124 3.32192209 4.47229918 5.95947688 4.70703125 10.77148438 C4.72121094 11.44501953 4.73539063 12.11855469 4.75 12.8125 C4.77964844 13.50537109 4.80929688 14.19824219 4.83984375 14.91210938 C4.90999628 16.60746213 4.95732662 18.30373312 5 20 C5.37125 18.845 5.7425 17.69 6.125 16.5 C8.22820124 10.84450192 11.75534906 6.24465094 16 2 C18.5 1.75 18.5 1.75 21 2 C23 4 23 4 23.22705078 6.15478516 C23.21657715 7.02409668 23.20610352 7.8934082 23.1953125 8.7890625 C23.18886719 9.73007812 23.18242188 10.67109375 23.17578125 11.640625 C23.15902344 12.62546875 23.14226562 13.6103125 23.125 14.625 C23.11597656 15.61757813 23.10695312 16.61015625 23.09765625 17.6328125 C23.07404116 20.08878134 23.04110799 22.54427168 23 25 C23.29132813 24.16597656 23.58265625 23.33195312 23.8828125 22.47265625 C29.11637335 8.10505053 29.11637335 8.10505053 34 3 C37.25 1.8125 37.25 1.8125 40 2 C42 4 42 4 42.375 6.9375 C42.27146678 11.417665 40.60043435 15.32434736 38.97265625 19.44921875 C34.7959823 30.40250424 36.31878703 44.11234469 40 55 C41.1493663 57.45380584 42.1772267 58.94938004 44 61 C44.99 61.33 45.98 61.66 47 62 C47 58.7 47 55.4 47 52 C47.99 52 48.98 52 50 52 C50.103125 53.051875 50.20625 54.10375 50.3125 55.1875 C50.98215492 58.90104094 51.78899607 60.99303465 54 64 C54.66 64.33 55.32 64.66 56 65 C56 65.99 56 66.98 56 68 C52.29583874 70.37590142 49.07015427 70.20500286 44.75 70.125 C43.48671875 70.10695313 42.2234375 70.08890625 40.921875 70.0703125 C39.95765625 70.04710938 38.9934375 70.02390625 38 70 C37.67 69.01 37.34 68.02 37 67 C39.31 66.67 41.62 66.34 44 66 C43.61328125 65.5875 43.2265625 65.175 42.828125 64.75 C32.73150365 53.55374662 32.21843796 42.63279975 32.74707031 28.06152344 C33.34973326 20.76674214 35.59620822 13.87656149 38 7 C31.60935051 13.09896009 29.2027073 20.94247421 26.22460938 29.04785156 C24.35067433 34.13527368 22.28409658 39.08040737 20 44 C19.01 44 18.02 44 17 44 C16.82439029 28.09756495 16.82439029 28.09756495 17.77734375 21.171875 C18.22576806 16.79777122 18.07387522 12.39147122 18 8 C14.77511438 8.720471 14.77511438 8.720471 13.31640625 11.703125 C7.14329584 24.18683157 3.58534005 36.08655513 2 50 C0.515 50.495 0.515 50.495 -1 51 C-1.1730801 37.82668094 -1.1730801 37.82668094 -0.5 31.75 C0.02246633 26.6843482 0.14697146 21.65085875 0.1875 16.5625 C0.20039062 15.78036133 0.21328125 14.99822266 0.2265625 14.19238281 C0.23328071 10.3210149 0.20913723 7.27441289 -2 4 C-4.74086056 3.77776806 -6.43963721 3.65218861 -8.8125 5.125 C-10.49106106 7.77535957 -10.20450238 9.93246424 -10 13 C-7.525 13.99 -7.525 13.99 -5 15 C-5.33 15.99 -5.66 16.98 -6 18 C-8.25 18.3125 -8.25 18.3125 -11 18 C-13.72833446 15.49288185 -14.8371499 13.74911046 -15.625 10.125 C-14.73612979 5.68064893 -12.25484703 3.06090536 -9 0 C-5.77839187 -1.61080407 -3.42436421 -0.82657067 0 0 Z " fill="#ffffff" transform="translate(63,43)"/>
<path d="M0 0 C2.9766646 2.82388004 3.92947354 4.41637736 4.42578125 8.5234375 C4.38839844 9.79445313 4.35101563 11.06546875 4.3125 12.375 C4.28800781 13.64085937 4.26351562 14.90671875 4.23828125 16.2109375 C4.00806546 19.8717459 3.57504102 23.38144921 3 27 C3.99 26.67 4.98 26.34 6 26 C5.87882812 26.55945313 5.75765625 27.11890625 5.6328125 27.6953125 C4.08807759 35.08627492 3.01319646 42.51959209 2 50 C0.515 50.495 0.515 50.495 -1 51 C-1.1730801 37.82668094 -1.1730801 37.82668094 -0.5 31.75 C0.02246633 26.6843482 0.14697146 21.65085875 0.1875 16.5625 C0.20039062 15.78036133 0.21328125 14.99822266 0.2265625 14.19238281 C0.23328071 10.3210149 0.20913723 7.27441289 -2 4 C-4.74086056 3.77776806 -6.43963721 3.65218861 -8.8125 5.125 C-10.49106106 7.77535957 -10.20450238 9.93246424 -10 13 C-7.525 13.99 -7.525 13.99 -5 15 C-5.33 15.99 -5.66 16.98 -6 18 C-8.25 18.3125 -8.25 18.3125 -11 18 C-13.72833446 15.49288185 -14.8371499 13.74911046 -15.625 10.125 C-14.73612979 5.68064893 -12.25484703 3.06090536 -9 0 C-5.77839187 -1.61080407 -3.42436421 -0.82657067 0 0 Z " fill="#ffffff" transform="translate(63,43)"/>
<path d="M0 0 C2.5 0.25 2.5 0.25 4.5 2.25 C4.75878906 4.69262695 4.75878906 4.69262695 4.765625 7.73828125 C4.76949219 9.38666992 4.76949219 9.38666992 4.7734375 11.06835938 C4.76570313 12.22142578 4.75796875 13.37449219 4.75 14.5625 C4.75773437 15.70396484 4.76546875 16.84542969 4.7734375 18.02148438 C4.77085938 19.12427734 4.76828125 20.22707031 4.765625 21.36328125 C4.76336914 22.37173096 4.76111328 23.38018066 4.75878906 24.41918945 C4.48533585 27.41040643 3.85138703 29.57431322 2.5 32.25 C1.51 32.745 1.51 32.745 0.5 33.25 C0.03348793 35.37576782 0.03348793 35.37576782 -0.125 37.8125 C-0.19976562 38.63878906 -0.27453125 39.46507812 -0.3515625 40.31640625 C-0.40054688 40.95449219 -0.44953125 41.59257813 -0.5 42.25 C-0.83 42.25 -1.16 42.25 -1.5 42.25 C-1.67560971 26.34756495 -1.67560971 26.34756495 -0.72265625 19.421875 C-0.27423194 15.04777122 -0.42612478 10.64147122 -0.5 6.25 C-3.7933705 6.98178961 -3.7933705 6.98178961 -5.2890625 10.3046875 C-5.91131952 11.57313449 -6.52291878 12.84685299 -7.125 14.125 C-7.43695313 14.76308594 -7.74890625 15.40117188 -8.0703125 16.05859375 C-9.37847102 18.75949 -10.55011951 21.40035854 -11.5 24.25 C-13.5625 24.9375 -13.5625 24.9375 -15.5 25.25 C-15.5 22.94 -15.5 20.63 -15.5 18.25 C-14.84 18.25 -14.18 18.25 -13.5 18.25 C-13.12875 17.095 -12.7575 15.94 -12.375 14.75 C-10.45209272 9.57931153 -5.97591184 0.59759118 0 0 Z " fill="#ffffff" transform="translate(81.5,44.75)"/>
<path d="M0 0 C0.33 0 0.66 0 1 0 C1.33 2.64 1.66 5.28 2 8 C2.33 8 2.66 8 3 8 C3.10957031 8.90621094 3.21914062 9.81242187 3.33203125 10.74609375 C4.99768435 24.119085 4.99768435 24.119085 11 36 C11.99 36.33 12.98 36.66 14 37 C14 33.7 14 30.4 14 27 C14.99 27 15.98 27 17 27 C17.103125 28.051875 17.20625 29.10375 17.3125 30.1875 C17.98215492 33.90104094 18.78899607 35.99303465 21 39 C21.66 39.33 22.32 39.66 23 40 C23 40.99 23 41.98 23 43 C19.29583874 45.37590142 16.07015427 45.20500286 11.75 45.125 C9.85507813 45.09792969 9.85507813 45.09792969 7.921875 45.0703125 C6.47554688 45.03550781 6.47554688 45.03550781 5 45 C4.505 43.515 4.505 43.515 4 42 C7.465 41.505 7.465 41.505 11 41 C10.41992188 40.38125 10.41992188 40.38125 9.828125 39.75 C4.02017751 33.30950378 -0.14659827 26.53428748 -0.09765625 17.67578125 C-0.09443359 16.64775391 -0.09121094 15.61972656 -0.08789062 14.56054688 C-0.07951172 13.48869141 -0.07113281 12.41683594 -0.0625 11.3125 C-0.05798828 10.22904297 -0.05347656 9.14558594 -0.04882812 8.02929688 C-0.03703743 5.35280915 -0.02058063 2.67643223 0 0 Z " fill="#ffffff" transform="translate(96,68)"/>
<path d="M0 0 C0.99 0 1.98 0 3 0 C3.33 5.61 3.66 11.22 4 17 C4.33 15.02 4.66 13.04 5 11 C5.33 11 5.66 11 6 11 C6.054348 13.0622048 6.09294961 15.12482816 6.125 17.1875 C6.14820312 18.33605469 6.17140625 19.48460938 6.1953125 20.66796875 C6.00313312 23.94654899 5.51407144 26.10420602 4 29 C3.34 29.33 2.68 29.66 2 30 C1.53348793 32.12576782 1.53348793 32.12576782 1.375 34.5625 C1.30023438 35.38878906 1.22546875 36.21507812 1.1484375 37.06640625 C1.09945312 37.70449219 1.05046875 38.34257813 1 39 C0.67 39 0.34 39 0 39 C-0.17560971 23.09756495 -0.17560971 23.09756495 0.77734375 16.171875 C1.22576806 11.79777122 1.07387522 7.39147122 1 3 C0.34 3 -0.32 3 -1 3 C-0.67 2.01 -0.34 1.02 0 0 Z " fill="#ffffff" transform="translate(80,48)"/>
<path d="M0 0 C0 0.33 0 0.66 0 1 C-2.64 1.33 -5.28 1.66 -8 2 C-8 2.99 -8 3.98 -8 5 C-8.66 5.66 -9.32 6.32 -10 7 C-10.16681109 10.08347826 -10.16681109 10.08347826 -10 13 C-7.525 13.99 -7.525 13.99 -5 15 C-5.33 15.99 -5.66 16.98 -6 18 C-8.25 18.3125 -8.25 18.3125 -11 18 C-13.72833446 15.49288185 -14.8371499 13.74911046 -15.625 10.125 C-14.73612979 5.68064893 -12.25484703 3.06090536 -9 0 C-5.93109813 -1.53445094 -3.29905734 -0.54984289 0 0 Z " fill="#ffffff" transform="translate(63,43)"/>
<path d="M0 0 C0.33 0 0.66 0 1 0 C1.33 2.64 1.66 5.28 2 8 C2.33 8 2.66 8 3 8 C3.13277344 8.94101563 3.26554687 9.88203125 3.40234375 10.8515625 C3.57894531 12.09679687 3.75554687 13.34203125 3.9375 14.625 C4.19853516 16.46964844 4.19853516 16.46964844 4.46484375 18.3515625 C4.80193628 20.64969698 5.20246414 22.94025719 5.69140625 25.2109375 C6.03716343 28.33588213 5.4889912 29.33301168 4 32 C0.02600026 24.91333249 -0.51329743 18.96300811 -0.25 10.9375 C-0.23195313 9.88111328 -0.21390625 8.82472656 -0.1953125 7.73632812 C-0.14862013 5.1565745 -0.08315588 2.57879183 0 0 Z " fill="#ffffff" transform="translate(96,68)"/>
<path d="M0 0 C0.66 0.66 1.32 1.32 2 2 C1.63865402 5.80703797 0.26526267 8.76894829 -1.5 12.125 C-2.88219118 14.76884242 -4.05451687 17.1635506 -5 20 C-7.0625 20.6875 -7.0625 20.6875 -9 21 C-9 18.69 -9 16.38 -9 14 C-8.34 14 -7.68 14 -7 14 C-6.5875 12.80375 -6.175 11.6075 -5.75 10.375 C-4.29614006 6.46557757 -2.44250006 3.3689656 0 0 Z " fill="#ffffff" transform="translate(75,49)"/>
<path d="M0 0 C1.56316524 4.79205331 -0.08870439 8.11893708 -1.75 12.6875 C-2.01554687 13.47189453 -2.28109375 14.25628906 -2.5546875 15.06445312 C-2.82023437 15.81017578 -3.08578125 16.55589844 -3.359375 17.32421875 C-3.60139648 18.00572998 -3.84341797 18.68724121 -4.09277344 19.3894043 C-5 21 -5 21 -8 22 C-8.08096803 20.54257537 -8.13917774 19.08387193 -8.1875 17.625 C-8.22230469 16.81289062 -8.25710937 16.00078125 -8.29296875 15.1640625 C-8.19628906 14.44992188 -8.09960938 13.73578125 -8 13 C-7.01 12.34 -6.02 11.68 -5 11 C-4.06314892 8.8858856 -4.06314892 8.8858856 -3.4375 6.5 C-2.20273349 2.20273349 -2.20273349 2.20273349 0 0 Z " fill="#ffffff" transform="translate(89,65)"/>
<path d="M0 0 C0.33 0 0.66 0 1 0 C0.32993252 6.56666133 -0.9770183 12.94631862 -2.30078125 19.41015625 C-3.05332323 23.27376566 -3.60067438 27.08660889 -4 31 C-4.33 31 -4.66 31 -5 31 C-5.02909763 27.75001888 -5.04683161 24.50007143 -5.0625 21.25 C-5.07087891 20.32960938 -5.07925781 19.40921875 -5.08789062 18.4609375 C-5.09111328 17.57148437 -5.09433594 16.68203125 -5.09765625 15.765625 C-5.10289307 14.94868164 -5.10812988 14.13173828 -5.11352539 13.29003906 C-5.00299021 11.06031865 -4.62055567 9.13866245 -4 7 C-3.34 7 -2.68 7 -2 7 C-1.855625 6.030625 -1.71125 5.06125 -1.5625 4.0625 C-1 1 -1 1 0 0 Z " fill="#ffffff" transform="translate(102,53)"/>
<path d="M0 0 C8.24444444 -0.62222222 8.24444444 -0.62222222 11.125 1.75 C12.19174501 4.49305861 11.72467423 5.19728641 11 8 C10.7801777 10.24707241 10.59516013 12.49771238 10.4375 14.75 C10.35371094 15.92046875 10.26992187 17.0909375 10.18359375 18.296875 C10.12300781 19.18890625 10.06242187 20.0809375 10 21 C9.67 21 9.34 21 9 21 C8.95101562 20.03578125 8.90203125 19.0715625 8.8515625 18.078125 C8.73941406 16.18320312 8.73941406 16.18320312 8.625 14.25 C8.55539063 12.99703125 8.48578125 11.7440625 8.4140625 10.453125 C7.94138576 6.42179633 7.94138576 6.42179633 6 3 C2.43793339 2.18129815 2.43793339 2.18129815 -1 2 C-0.67 1.34 -0.34 0.68 0 0 Z " fill="#ffffff" transform="translate(55,44)"/>
<path d="M0 0 C0.33 0 0.66 0 1 0 C1.33 2.31 1.66 4.62 2 7 C4.475 7.99 4.475 7.99 7 9 C6.67 9.99 6.34 10.98 6 12 C3.625 12.1875 3.625 12.1875 1 12 C-1.69461986 7.95807022 -1.23200889 5.7948504 -1 1 C-0.67 0.67 -0.34 0.34 0 0 Z " fill="#ffffff" transform="translate(51,49)"/>
<path d="M0 0 C1.10153804 3.30461413 0.95317786 3.98668832 -0.1875 7.125 C-0.42855469 7.82882813 -0.66960937 8.53265625 -0.91796875 9.2578125 C-2 11 -2 11 -4.11328125 11.7421875 C-4.73589844 11.82726562 -5.35851562 11.91234375 -6 12 C-6 9.69 -6 7.38 -6 5 C-5.34 5 -4.68 5 -4 5 C-3.67 4.34 -3.34 3.68 -3 3 C-2.34 3 -1.68 3 -1 3 C-0.67 2.01 -0.34 1.02 0 0 Z " fill="#ffffff" transform="translate(72,58)"/>
<path d="M0 0 C1.98 0.495 1.98 0.495 4 1 C3.01 3.97 2.02 6.94 1 10 C0.34 10 -0.32 10 -1 10 C-1.02689216 8.52093108 -1.04634621 7.04172517 -1.0625 5.5625 C-1.07410156 4.73878906 -1.08570312 3.91507812 -1.09765625 3.06640625 C-1 1 -1 1 0 0 Z " fill="#ffffff" transform="translate(82,77)"/>
<path d="M0 0 C2.40072955 2.88087546 4.47291037 5.56404834 6 9 C5.34 9.66 4.68 10.32 4 11 C1.29727467 8.12835434 0.05208163 6.69008159 -0.25 2.6875 C-0.1675 1.800625 -0.085 0.91375 0 0 Z " fill="#ffffff" transform="translate(101,96)"/>
<path d="M0 0 C-0.33 0.99 -0.66 1.98 -1 3 C-1.99 3.33 -2.98 3.66 -4 4 C-5.66710346 5.49985609 -5.66710346 5.49985609 -7 7 C-7.6875 5.1875 -7.6875 5.1875 -8 3 C-5.85915306 -0.33020635 -3.75910189 -0.30479204 0 0 Z " fill="#ffffff" transform="translate(84,45)"/>
<path d="M0 0 C1.125 3.75 1.125 3.75 0 6 C0.66 6 1.32 6 2 6 C1.67 7.32 1.34 8.64 1 10 C0.01 10 -0.98 10 -2 10 C-3 8 -3 8 -2.44140625 6.0546875 C-2.15136719 5.33539063 -1.86132812 4.61609375 -1.5625 3.875 C-1.27503906 3.15054688 -0.98757812 2.42609375 -0.69140625 1.6796875 C-0.46324219 1.12539063 -0.23507813 0.57109375 0 0 Z " fill="#ffffff" transform="translate(90,57)"/>
<path d="M0 0 C1 3 1 3 -0.3125 5.6875 C-0.869375 6.450625 -1.42625 7.21375 -2 8 C-2.66 8 -3.32 8 -4 8 C-3.6875 5.125 -3.6875 5.125 -3 2 C-2.01 1.34 -1.02 0.68 0 0 Z " fill="#ffffff" transform="translate(94,55)"/>
</svg>
