<?xml version="1.0" encoding="UTF-8"?>
<svg version="1.1" xmlns="http://www.w3.org/2000/svg" width="172" height="172">
<path d="M0 0 C-0.66385854 4.02278459 -2.74964829 7.18815416 -4.8125 10.625 C-10.12684729 19.72436055 -13.43382758 28.7741917 -16 39 C-16.99 39 -17.98 39 -19 39 C-18.37745745 29.66186175 -16.07272388 20.94243625 -11 13 C-11.391875 13.35449219 -11.78375 13.70898438 -12.1875 14.07421875 C-17.09413265 18.44154479 -22.15234101 22.60930434 -27.25 26.75 C-27.94738281 27.31678467 -28.64476562 27.88356934 -29.36328125 28.4675293 C-31.23700045 29.98496205 -33.11661293 31.49459373 -35 33 C-35.77859375 33.62390625 -36.5571875 34.2478125 -37.359375 34.890625 C-39 36 -39 36 -41 36 C-40.505 36.845625 -40.01 37.69125 -39.5 38.5625 C-37.85252292 42.33796832 -37.75569053 44.92817548 -38 49 C-38.99 49 -39.98 49 -41 49 C-41.66 46.36 -42.32 43.72 -43 41 C-46.6412756 41.9103189 -48.27625047 42.66370461 -51.2578125 44.72265625 C-52.44310547 45.52993164 -52.44310547 45.52993164 -53.65234375 46.35351562 C-54.46832031 46.91748047 -55.28429688 47.48144531 -56.125 48.0625 C-57.74975096 49.18253568 -59.37722505 50.29863469 -61.0078125 51.41015625 C-61.72598145 51.90652588 -62.44415039 52.40289551 -63.18408203 52.91430664 C-65 54 -65 54 -67 54 C-65.58768106 50.6385531 -63.99382121 48.93568747 -61.0859375 46.765625 C-60.32539062 46.19199219 -59.56484375 45.61835937 -58.78125 45.02734375 C-57.9871875 44.44082031 -57.193125 43.85429688 -56.375 43.25 C-55.57320312 42.64800781 -54.77140625 42.04601562 -53.9453125 41.42578125 C-51.9687329 39.94334655 -49.98695558 38.46848138 -48 37 C-49.41791563 34.06553114 -50.98332607 31.56667591 -53 29 C-47.46153846 29.61538462 -47.46153846 29.61538462 -45.125 31.5625 C-44.75375 32.036875 -44.3825 32.51125 -44 33 C-41.15875809 31.6799177 -38.83776067 30.20153376 -36.42578125 28.20703125 C-35.76191406 27.66199951 -35.09804687 27.11696777 -34.4140625 26.55541992 C-33.72054687 25.98025635 -33.02703125 25.40509277 -32.3125 24.8125 C-30.88209161 23.63731307 -29.45110533 22.46282916 -28.01953125 21.2890625 C-27.33068848 20.72348633 -26.6418457 20.15791016 -25.93212891 19.57519531 C-22.34161202 16.64797583 -18.68111975 13.81196647 -15 11 C-15.71285156 11.20496094 -16.42570312 11.40992188 -17.16015625 11.62109375 C-25.23402499 13.89220891 -32.61484473 15.14710799 -41 15 C-41 14.01 -41 13.02 -41 12 C-40.45698242 11.90501221 -39.91396484 11.81002441 -39.35449219 11.7121582 C-22.13839413 8.73090809 -22.13839413 8.73090809 -6.43359375 1.34765625 C-4 0 -4 0 0 0 Z " fill="#ffffff" transform="translate(117,38)"/>
<path d="M0 0 C5.20876968 0.37205498 8.5878285 2.09462378 12 6 C14.68167985 10.82702374 15.33609891 14.51038453 15 20 C14.01 20 13.02 20 12 20 C11.34 17.36 10.68 14.72 10 12 C6.3587244 12.9103189 4.72374953 13.66370461 1.7421875 15.72265625 C0.95199219 16.26083984 0.16179687 16.79902344 -0.65234375 17.35351562 C-1.46832031 17.91748047 -2.28429688 18.48144531 -3.125 19.0625 C-4.74975096 20.18253568 -6.37722505 21.29863469 -8.0078125 22.41015625 C-8.72598145 22.90652588 -9.44415039 23.40289551 -10.18408203 23.91430664 C-12 25 -12 25 -14 25 C-12.58768106 21.6385531 -10.99382121 19.93568747 -8.0859375 17.765625 C-7.32539062 17.19199219 -6.56484375 16.61835937 -5.78125 16.02734375 C-4.9871875 15.44082031 -4.193125 14.85429688 -3.375 14.25 C-2.17230469 13.34701172 -2.17230469 13.34701172 -0.9453125 12.42578125 C1.0312671 10.94334655 3.01304442 9.46848138 5 8 C3.58208437 5.06553114 2.01667393 2.56667591 0 0 Z " fill="#ffffff" transform="translate(64,67)"/>
<path d="M0 0 C-0.33 0.66 -0.66 1.32 -1 2 C-2.71484375 2.5625 -2.71484375 2.5625 -4.9375 3 C-6.15566406 3.24363281 -6.15566406 3.24363281 -7.3984375 3.4921875 C-8.25695312 3.65976562 -9.11546875 3.82734375 -10 4 C-10.83789062 4.18820313 -11.67578125 4.37640625 -12.5390625 4.5703125 C-17.8166148 5.73039366 -22.59835745 6.20006084 -28 6 C-28 5.01 -28 4.02 -28 3 C-27.40985107 2.88406494 -26.81970215 2.76812988 -26.21166992 2.64868164 C-23.5365443 2.12197433 -20.86202044 1.59227135 -18.1875 1.0625 C-17.25873047 0.88009766 -16.32996094 0.69769531 -15.37304688 0.50976562 C-14.48037109 0.33251953 -13.58769531 0.15527344 -12.66796875 -0.02734375 C-11.84578857 -0.18968506 -11.0236084 -0.35202637 -10.17651367 -0.51928711 C-4.06705198 -1.8686455 -4.06705198 -1.8686455 0 0 Z " fill="#ffffff" transform="translate(104,47)"/>
<path d="M0 0 C1.32 0.33 2.64 0.66 4 1 C3.67386719 1.73863281 3.34773438 2.47726563 3.01171875 3.23828125 C0.07448525 10.05716847 -2.25292833 16.78445195 -4 24 C-4.99 24 -5.98 24 -7 24 C-6.44052821 15.60792315 -4.72605458 7.08908187 0 0 Z " fill="#ffffff" transform="translate(105,53)"/>
<path d="M0 0 C0.33 0.99 0.66 1.98 1 3 C1.99 3.66 2.98 4.32 4 5 C3.50113281 5.25652344 3.00226563 5.51304688 2.48828125 5.77734375 C-3.19991873 8.81036959 -8.43645989 12.28775448 -13.65698242 16.05249023 C-17.79371795 19 -17.79371795 19 -20 19 C-18.59333383 15.65355796 -17.03216766 13.97497478 -14.12109375 11.8359375 C-13.36505859 11.27132812 -12.60902344 10.70671875 -11.83007812 10.125 C-11.04052734 9.5475 -10.25097656 8.97 -9.4375 8.375 C-7.87112616 7.21962433 -6.30719312 6.06092994 -4.74609375 4.8984375 C-4.05185303 4.38974121 -3.3576123 3.88104492 -2.64233398 3.35693359 C-0.87148801 2.0802038 -0.87148801 2.0802038 0 0 Z " fill="#ffffff" transform="translate(70,73)"/>
<path d="M0 0 C2 1.5 2 1.5 3 3 C-2.08086796 3.84681133 -6.84828377 4.09038099 -12 4 C-12 3.01 -12 2.02 -12 1 C-7.96961634 -0.34346122 -4.20161608 -0.26676927 0 0 Z " fill="#ffffff" transform="translate(88,49)"/>
<path d="M0 0 C1.32 0.66 2.64 1.32 4 2 C2.54550599 3.0055761 1.08627557 4.00430435 -0.375 5 C-1.59316406 5.8353125 -1.59316406 5.8353125 -2.8359375 6.6875 C-5 8 -5 8 -7 8 C-5.50902342 4.2047869 -3.24299151 2.38957269 0 0 Z " fill="#ffffff" transform="translate(57,84)"/>
<path d="M0 0 C0.99 0 1.98 0 3 0 C2.34 2.64 1.68 5.28 1 8 C0.01 8 -0.98 8 -2 8 C-2.125 5.125 -2.125 5.125 -2 2 C-1.34 1.34 -0.68 0.68 0 0 Z " fill="#ffffff" transform="translate(100,69)"/>
<path d="M0 0 C0.66 0.33 1.32 0.66 2 1 C1.2575 1.6496875 1.2575 1.6496875 0.5 2.3125 C-1.33218192 3.99740483 -1.33218192 3.99740483 -1 7 C-1.99 7.33 -2.98 7.66 -4 8 C-4.66 7.01 -5.32 6.02 -6 5 C-4.02 3.35 -2.04 1.7 0 0 Z " fill="#ffffff" transform="translate(93,56)"/>
<path d="M0 0 C0.99 0.33 1.98 0.66 3 1 C2.3125 2.9375 2.3125 2.9375 1 5 C-1.625 5.75 -1.625 5.75 -4 6 C-2.68 4.02 -1.36 2.04 0 0 Z " fill="#ffffff" transform="translate(86,62)"/>
<path d="M0 0 C2.97 0.495 2.97 0.495 6 1 C6 4 6 4 5 6 C3.35 4.02 1.7 2.04 0 0 Z " fill="#ffffff" transform="translate(64,67)"/>
<path d="M0 0 C1.98 0 3.96 0 6 0 C6 0.99 6 1.98 6 3 C3.69 3 1.38 3 -1 3 C-0.67 2.01 -0.34 1.02 0 0 Z " fill="#ffffff" transform="translate(88,48)"/>
</svg>
